<?xml version="1.0" encoding="UTF-8" standalone="no"?>
<!-- Created with Inkscape (http://www.inkscape.org/) -->

<svg
   xmlns:dc="http://purl.org/dc/elements/1.1/"
   xmlns:cc="http://creativecommons.org/ns#"
   xmlns:rdf="http://www.w3.org/1999/02/22-rdf-syntax-ns#"
   xmlns:svg="http://www.w3.org/2000/svg"
   xmlns="http://www.w3.org/2000/svg"
   xmlns:xlink="http://www.w3.org/1999/xlink"
   xmlns:sodipodi="http://sodipodi.sourceforge.net/DTD/sodipodi-0.dtd"
   xmlns:inkscape="http://www.inkscape.org/namespaces/inkscape"
   width="744.09448819"
   height="1052.3622047"
   id="svg2"
   version="1.1"
   inkscape:version="0.48.3.1 r9886"
   sodipodi:docname="New document 1">
  <defs
     id="defs4">
    <filter
       id="filter3055"
       inkscape:menu="Textures"
       inkscape:label="Watercolor"
       inkscape:menu-tooltip="Cloudy watercolor effect"
       height="2"
       y="-0.5"
       width="1.6"
       x="-0.30000001"
       color-interpolation-filters="sRGB">
      <feGaussianBlur
         id="feGaussianBlur3057"
         stdDeviation="15"
         result="result8" />
      <feTurbulence
         id="feTurbulence3059"
         seed="27"
         result="result7"
         type="fractalNoise"
         numOctaves="5"
         baseFrequency="0.025" />
      <feComposite
         id="feComposite3061"
         in2="result8"
         result="result6"
         operator="over"
         in="result7" />
      <feColorMatrix
         id="feColorMatrix3063"
         result="result9"
         values="1 0 0 0 0 0 1 0 0 0 0 0 1 0 0 0 0 0 6 -4 " />
      <feDisplacementMap
         id="feDisplacementMap3065"
         in2="result9"
         in="result7"
         xChannelSelector="A"
         yChannelSelector="A"
         scale="50"
         result="result4" />
      <feComposite
         id="feComposite3067"
         in2="result4"
         result="result2"
         operator="in"
         in="result8" />
      <feComposite
         id="feComposite3069"
         in2="result9"
         result="fbSourceGraphic"
         in="result2"
         operator="in" />
      <feComposite
         k4="0"
         k3="0"
         id="feComposite3071"
         in2="fbSourceGraphic"
         operator="arithmetic"
         k2="1"
         k1="0.5"
         in="fbSourceGraphic"
         result="result91" />
      <feBlend
         id="feBlend3073"
         in2="result91"
         in="fbSourceGraphic"
         mode="multiply" />
    </filter>
    <filter
       id="filter3075"
       inkscape:menu="Textures"
       inkscape:label="Watercolor"
       inkscape:menu-tooltip="Cloudy watercolor effect"
       height="2"
       y="-0.5"
       width="1.6"
       x="-0.30000001"
       color-interpolation-filters="sRGB">
      <feGaussianBlur
         id="feGaussianBlur3077"
         stdDeviation="15"
         result="result8" />
      <feTurbulence
         id="feTurbulence3079"
         seed="27"
         result="result7"
         type="fractalNoise"
         numOctaves="5"
         baseFrequency="0.025" />
      <feComposite
         id="feComposite3081"
         in2="result8"
         result="result6"
         operator="over"
         in="result7" />
      <feColorMatrix
         id="feColorMatrix3083"
         result="result9"
         values="1 0 0 0 0 0 1 0 0 0 0 0 1 0 0 0 0 0 6 -4 " />
      <feDisplacementMap
         id="feDisplacementMap3085"
         in2="result9"
         in="result7"
         xChannelSelector="A"
         yChannelSelector="A"
         scale="50"
         result="result4" />
      <feComposite
         id="feComposite3087"
         in2="result4"
         result="result2"
         operator="in"
         in="result8" />
      <feComposite
         id="feComposite3089"
         in2="result9"
         result="fbSourceGraphic"
         in="result2"
         operator="in" />
      <feComposite
         k4="0"
         k3="0"
         id="feComposite3091"
         in2="fbSourceGraphic"
         operator="arithmetic"
         k2="1"
         k1="0.5"
         in="fbSourceGraphic"
         result="result91" />
      <feBlend
         id="feBlend3093"
         in2="result91"
         in="fbSourceGraphic"
         mode="multiply" />
    </filter>
    <filter
       id="filter3095"
       inkscape:menu="Textures"
       inkscape:label="Watercolor"
       inkscape:menu-tooltip="Cloudy watercolor effect"
       height="2"
       y="-0.5"
       width="1.6"
       x="-0.30000001"
       color-interpolation-filters="sRGB">
      <feGaussianBlur
         id="feGaussianBlur3097"
         stdDeviation="15"
         result="result8" />
      <feTurbulence
         id="feTurbulence3099"
         seed="27"
         result="result7"
         type="fractalNoise"
         numOctaves="5"
         baseFrequency="0.025" />
      <feComposite
         id="feComposite3101"
         in2="result8"
         result="result6"
         operator="over"
         in="result7" />
      <feColorMatrix
         id="feColorMatrix3103"
         result="result9"
         values="1 0 0 0 0 0 1 0 0 0 0 0 1 0 0 0 0 0 6 -4 " />
      <feDisplacementMap
         id="feDisplacementMap3105"
         in2="result9"
         in="result7"
         xChannelSelector="A"
         yChannelSelector="A"
         scale="50"
         result="result4" />
      <feComposite
         id="feComposite3107"
         in2="result4"
         result="result2"
         operator="in"
         in="result8" />
      <feComposite
         id="feComposite3109"
         in2="result9"
         result="fbSourceGraphic"
         in="result2"
         operator="in" />
      <feComposite
         k4="0"
         k3="0"
         id="feComposite3111"
         in2="fbSourceGraphic"
         operator="arithmetic"
         k2="1"
         k1="0.5"
         in="fbSourceGraphic"
         result="result91" />
      <feBlend
         id="feBlend3113"
         in2="result91"
         in="fbSourceGraphic"
         mode="multiply" />
    </filter>
    <filter
       id="filter3115"
       inkscape:menu="Textures"
       inkscape:label="Watercolor"
       inkscape:menu-tooltip="Cloudy watercolor effect"
       height="2"
       y="-0.5"
       width="1.6"
       x="-0.30000001"
       color-interpolation-filters="sRGB">
      <feGaussianBlur
         id="feGaussianBlur3117"
         stdDeviation="15"
         result="result8" />
      <feTurbulence
         id="feTurbulence3119"
         seed="27"
         result="result7"
         type="fractalNoise"
         numOctaves="5"
         baseFrequency="0.025" />
      <feComposite
         id="feComposite3121"
         in2="result8"
         result="result6"
         operator="over"
         in="result7" />
      <feColorMatrix
         id="feColorMatrix3123"
         result="result9"
         values="1 0 0 0 0 0 1 0 0 0 0 0 1 0 0 0 0 0 6 -4 " />
      <feDisplacementMap
         id="feDisplacementMap3125"
         in2="result9"
         in="result7"
         xChannelSelector="A"
         yChannelSelector="A"
         scale="50"
         result="result4" />
      <feComposite
         id="feComposite3127"
         in2="result4"
         result="result2"
         operator="in"
         in="result8" />
      <feComposite
         id="feComposite3129"
         in2="result9"
         result="fbSourceGraphic"
         in="result2"
         operator="in" />
      <feComposite
         k4="0"
         k3="0"
         id="feComposite3131"
         in2="fbSourceGraphic"
         operator="arithmetic"
         k2="1"
         k1="0.5"
         in="fbSourceGraphic"
         result="result91" />
      <feBlend
         id="feBlend3133"
         in2="result91"
         in="fbSourceGraphic"
         mode="multiply" />
    </filter>
    <radialGradient
       inkscape:collect="always"
       xlink:href="#linearGradient3773"
       id="radialGradient3051"
       gradientUnits="userSpaceOnUse"
       gradientTransform="matrix(1.9515638,-0.04840909,0.03793905,1.5294745,-569.07551,-134.67873)"
       cx="368.90063"
       cy="546.19128"
       fx="368.90063"
       fy="546.19128"
       r="145.54826" />
    <linearGradient
       inkscape:collect="always"
       id="linearGradient3773">
      <stop
         style="stop-color:#ffd42a;stop-opacity:1;"
         offset="0"
         id="stop3775" />
      <stop
         style="stop-color:#ffd42a;stop-opacity:0;"
         offset="1"
         id="stop3777" />
    </linearGradient>
    <filter
       id="filter3135"
       inkscape:menu="Textures"
       inkscape:label="Watercolor"
       inkscape:menu-tooltip="Cloudy watercolor effect"
       height="2"
       y="-0.5"
       width="1.6"
       x="-0.30000001"
       color-interpolation-filters="sRGB">
      <feGaussianBlur
         id="feGaussianBlur3137"
         stdDeviation="15"
         result="result8" />
      <feTurbulence
         id="feTurbulence3139"
         seed="27"
         result="result7"
         type="fractalNoise"
         numOctaves="5"
         baseFrequency="0.025" />
      <feComposite
         id="feComposite3141"
         in2="result8"
         result="result6"
         operator="over"
         in="result7" />
      <feColorMatrix
         id="feColorMatrix3143"
         result="result9"
         values="1 0 0 0 0 0 1 0 0 0 0 0 1 0 0 0 0 0 6 -4 " />
      <feDisplacementMap
         id="feDisplacementMap3145"
         in2="result9"
         in="result7"
         xChannelSelector="A"
         yChannelSelector="A"
         scale="50"
         result="result4" />
      <feComposite
         id="feComposite3147"
         in2="result4"
         result="result2"
         operator="in"
         in="result8" />
      <feComposite
         id="feComposite3149"
         in2="result9"
         result="fbSourceGraphic"
         in="result2"
         operator="in" />
      <feComposite
         k4="0"
         k3="0"
         id="feComposite3151"
         in2="fbSourceGraphic"
         operator="arithmetic"
         k2="1"
         k1="0.5"
         in="fbSourceGraphic"
         result="result91" />
      <feBlend
         id="feBlend3153"
         in2="result91"
         in="fbSourceGraphic"
         mode="multiply" />
    </filter>
    <radialGradient
       inkscape:collect="always"
       xlink:href="#linearGradient3783"
       id="radialGradient3053"
       gradientUnits="userSpaceOnUse"
       gradientTransform="matrix(1,0,0,1.1074809,-197.32103,77.952369)"
       cx="368.90063"
       cy="546.19128"
       fx="368.90063"
       fy="546.19128"
       r="145.54826" />
    <linearGradient
       inkscape:collect="always"
       id="linearGradient3783">
      <stop
         style="stop-color:#d45500;stop-opacity:1;"
         offset="0"
         id="stop3785" />
      <stop
         style="stop-color:#d45500;stop-opacity:0;"
         offset="1"
         id="stop3787" />
    </linearGradient>
    <filter
       id="filter3155"
       inkscape:menu="Textures"
       inkscape:label="Watercolor"
       inkscape:menu-tooltip="Cloudy watercolor effect"
       height="2"
       y="-0.5"
       width="1.6"
       x="-0.30000001"
       color-interpolation-filters="sRGB">
      <feGaussianBlur
         id="feGaussianBlur3157"
         stdDeviation="15"
         result="result8" />
      <feTurbulence
         id="feTurbulence3159"
         seed="27"
         result="result7"
         type="fractalNoise"
         numOctaves="5"
         baseFrequency="0.025" />
      <feComposite
         id="feComposite3161"
         in2="result8"
         result="result6"
         operator="over"
         in="result7" />
      <feColorMatrix
         id="feColorMatrix3163"
         result="result9"
         values="1 0 0 0 0 0 1 0 0 0 0 0 1 0 0 0 0 0 6 -4 " />
      <feDisplacementMap
         id="feDisplacementMap3165"
         in2="result9"
         in="result7"
         xChannelSelector="A"
         yChannelSelector="A"
         scale="50"
         result="result4" />
      <feComposite
         id="feComposite3167"
         in2="result4"
         result="result2"
         operator="in"
         in="result8" />
      <feComposite
         id="feComposite3169"
         in2="result9"
         result="fbSourceGraphic"
         in="result2"
         operator="in" />
      <feComposite
         k4="0"
         k3="0"
         id="feComposite3171"
         in2="fbSourceGraphic"
         operator="arithmetic"
         k2="1"
         k1="0.5"
         in="fbSourceGraphic"
         result="result91" />
      <feBlend
         id="feBlend3173"
         in2="result91"
         in="fbSourceGraphic"
         mode="multiply" />
    </filter>
    <radialGradient
       inkscape:collect="always"
       xlink:href="#linearGradient3783"
       id="radialGradient4725"
       gradientUnits="userSpaceOnUse"
       gradientTransform="matrix(1,0,0,1.1074809,-85.906639,-119.19049)"
       cx="368.90063"
       cy="546.19128"
       fx="368.90063"
       fy="546.19128"
       r="145.54826" />
    <filter
       id="filter4733"
       inkscape:menu="Textures"
       inkscape:label="Watercolor"
       inkscape:menu-tooltip="Cloudy watercolor effect"
       height="2"
       y="-0.5"
       width="1.6"
       x="-0.30000001"
       color-interpolation-filters="sRGB">
      <feGaussianBlur
         id="feGaussianBlur4735"
         stdDeviation="15"
         result="result8" />
      <feTurbulence
         id="feTurbulence4737"
         seed="27"
         result="result7"
         type="fractalNoise"
         numOctaves="5"
         baseFrequency="0.025" />
      <feComposite
         id="feComposite4739"
         in2="result8"
         result="result6"
         operator="over"
         in="result7" />
      <feColorMatrix
         id="feColorMatrix4741"
         result="result9"
         values="1 0 0 0 0 0 1 0 0 0 0 0 1 0 0 0 0 0 6 -4 " />
      <feDisplacementMap
         id="feDisplacementMap4743"
         in2="result9"
         in="result7"
         xChannelSelector="A"
         yChannelSelector="A"
         scale="50"
         result="result4" />
      <feComposite
         id="feComposite4745"
         in2="result4"
         result="result2"
         operator="in"
         in="result8" />
      <feComposite
         id="feComposite4747"
         in2="result9"
         result="fbSourceGraphic"
         in="result2"
         operator="in" />
      <feComposite
         k4="0"
         k3="0"
         id="feComposite4749"
         in2="fbSourceGraphic"
         operator="arithmetic"
         k2="1"
         k1="0.5"
         in="fbSourceGraphic"
         result="result91" />
      <feBlend
         id="feBlend4751"
         in2="result91"
         in="fbSourceGraphic"
         mode="multiply" />
    </filter>
    <radialGradient
       inkscape:collect="always"
       xlink:href="#linearGradient3947"
       id="radialGradient3953"
       cx="282.99399"
       cy="485.70593"
       fx="282.99399"
       fy="485.70593"
       r="232.87723"
       gradientTransform="matrix(1,0,0,1.3843511,-111.41439,10.461259)"
       gradientUnits="userSpaceOnUse" />
    <linearGradient
       inkscape:collect="always"
       id="linearGradient3947">
      <stop
         style="stop-color:#ffff00;stop-opacity:1;"
         offset="0"
         id="stop3949" />
      <stop
         style="stop-color:#ffff00;stop-opacity:0;"
         offset="1"
         id="stop3951" />
    </linearGradient>
    <filter
       id="filter4757"
       inkscape:menu="Textures"
       inkscape:label="Watercolor"
       inkscape:menu-tooltip="Cloudy watercolor effect"
       height="2"
       y="-0.5"
       width="1.6"
       x="-0.30000001"
       color-interpolation-filters="sRGB">
      <feGaussianBlur
         id="feGaussianBlur4759"
         stdDeviation="15"
         result="result8" />
      <feTurbulence
         id="feTurbulence4761"
         seed="27"
         result="result7"
         type="fractalNoise"
         numOctaves="5"
         baseFrequency="0.025" />
      <feComposite
         id="feComposite4763"
         in2="result8"
         result="result6"
         operator="over"
         in="result7" />
      <feColorMatrix
         id="feColorMatrix4765"
         result="result9"
         values="1 0 0 0 0 0 1 0 0 0 0 0 1 0 0 0 0 0 6 -4 " />
      <feDisplacementMap
         id="feDisplacementMap4767"
         in2="result9"
         in="result7"
         xChannelSelector="A"
         yChannelSelector="A"
         scale="50"
         result="result4" />
      <feComposite
         id="feComposite4769"
         in2="result4"
         result="result2"
         operator="in"
         in="result8" />
      <feComposite
         id="feComposite4771"
         in2="result9"
         result="fbSourceGraphic"
         in="result2"
         operator="in" />
      <feComposite
         k4="0"
         k3="0"
         id="feComposite4773"
         in2="fbSourceGraphic"
         operator="arithmetic"
         k2="1"
         k1="0.5"
         in="fbSourceGraphic"
         result="result91" />
      <feBlend
         id="feBlend4775"
         in2="result91"
         in="fbSourceGraphic"
         mode="multiply" />
    </filter>
    <radialGradient
       inkscape:collect="always"
       xlink:href="#linearGradient3947"
       id="radialGradient4777"
       cx="282.99399"
       cy="485.70593"
       fx="282.99399"
       fy="485.70593"
       r="232.87723"
       gradientTransform="matrix(1,0,0,1.3843511,0,-186.6816)"
       gradientUnits="userSpaceOnUse" />
    <filter
       id="filter4785"
       inkscape:menu="Textures"
       inkscape:label="Watercolor"
       inkscape:menu-tooltip="Cloudy watercolor effect"
       height="2"
       y="-0.5"
       width="1.6"
       x="-0.30000001"
       color-interpolation-filters="sRGB">
      <feGaussianBlur
         id="feGaussianBlur4787"
         stdDeviation="15"
         result="result8" />
      <feTurbulence
         id="feTurbulence4789"
         seed="27"
         result="result7"
         type="fractalNoise"
         numOctaves="5"
         baseFrequency="0.025" />
      <feComposite
         id="feComposite4791"
         in2="result8"
         result="result6"
         operator="over"
         in="result7" />
      <feColorMatrix
         id="feColorMatrix4793"
         result="result9"
         values="1 0 0 0 0 0 1 0 0 0 0 0 1 0 0 0 0 0 6 -4 " />
      <feDisplacementMap
         id="feDisplacementMap4795"
         in2="result9"
         in="result7"
         xChannelSelector="A"
         yChannelSelector="A"
         scale="50"
         result="result4" />
      <feComposite
         id="feComposite4797"
         in2="result4"
         result="result2"
         operator="in"
         in="result8" />
      <feComposite
         id="feComposite4799"
         in2="result9"
         result="fbSourceGraphic"
         in="result2"
         operator="in" />
      <feComposite
         k4="0"
         k3="0"
         id="feComposite4801"
         in2="fbSourceGraphic"
         operator="arithmetic"
         k2="1"
         k1="0.5"
         in="fbSourceGraphic"
         result="result91" />
      <feBlend
         id="feBlend4803"
         in2="result91"
         in="fbSourceGraphic"
         mode="multiply" />
    </filter>
    <radialGradient
       r="145.54826"
       fy="546.19128"
       fx="368.90063"
       cy="546.19128"
       cx="368.90063"
       gradientTransform="matrix(1,0,0,1.1074809,-197.32103,77.952369)"
       gradientUnits="userSpaceOnUse"
       id="radialGradient4814"
       xlink:href="#linearGradient3783"
       inkscape:collect="always" />
    <radialGradient
       r="232.87723"
       fy="485.70593"
       fx="282.99399"
       cy="485.70593"
       cx="282.99399"
       gradientTransform="matrix(1,0,0,1.3843511,-111.41439,10.461259)"
       gradientUnits="userSpaceOnUse"
       id="radialGradient4816"
       xlink:href="#linearGradient3947"
       inkscape:collect="always" />
    <filter
       id="filter4466"
       inkscape:menu="Textures"
       inkscape:label="Watercolor"
       inkscape:menu-tooltip="Cloudy watercolor effect"
       height="2"
       y="-0.5"
       width="1.6"
       x="-0.30000001"
       color-interpolation-filters="sRGB">
      <feGaussianBlur
         id="feGaussianBlur4468"
         stdDeviation="15"
         result="result8" />
      <feTurbulence
         id="feTurbulence4470"
         seed="27"
         result="result7"
         type="fractalNoise"
         numOctaves="5"
         baseFrequency="0.025" />
      <feComposite
         id="feComposite4472"
         in2="result8"
         result="result6"
         operator="over"
         in="result7" />
      <feColorMatrix
         id="feColorMatrix4474"
         result="result9"
         values="1 0 0 0 0 0 1 0 0 0 0 0 1 0 0 0 0 0 6 -4 " />
      <feDisplacementMap
         id="feDisplacementMap4476"
         in2="result9"
         in="result7"
         xChannelSelector="A"
         yChannelSelector="A"
         scale="50"
         result="result4" />
      <feComposite
         id="feComposite4478"
         in2="result4"
         result="result2"
         operator="in"
         in="result8" />
      <feComposite
         id="feComposite4480"
         in2="result9"
         result="fbSourceGraphic"
         in="result2"
         operator="in" />
      <feComposite
         k4="0"
         k3="0"
         id="feComposite4482"
         in2="fbSourceGraphic"
         operator="arithmetic"
         k2="1"
         k1="0.5"
         in="fbSourceGraphic"
         result="result91" />
      <feBlend
         id="feBlend4484"
         in2="result91"
         in="fbSourceGraphic"
         mode="multiply" />
    </filter>
    <filter
       id="filter4842"
       inkscape:menu="Textures"
       inkscape:label="Watercolor"
       inkscape:menu-tooltip="Cloudy watercolor effect"
       height="2"
       y="-0.5"
       width="1.6"
       x="-0.30000001"
       color-interpolation-filters="sRGB">
      <feGaussianBlur
         id="feGaussianBlur4844"
         stdDeviation="15"
         result="result8" />
      <feTurbulence
         id="feTurbulence4846"
         seed="27"
         result="result7"
         type="fractalNoise"
         numOctaves="5"
         baseFrequency="0.025" />
      <feComposite
         id="feComposite4848"
         in2="result8"
         result="result6"
         operator="over"
         in="result7" />
      <feColorMatrix
         id="feColorMatrix4850"
         result="result9"
         values="1 0 0 0 0 0 1 0 0 0 0 0 1 0 0 0 0 0 6 -4 " />
      <feDisplacementMap
         id="feDisplacementMap4852"
         in2="result9"
         in="result7"
         xChannelSelector="A"
         yChannelSelector="A"
         scale="50"
         result="result4" />
      <feComposite
         id="feComposite4854"
         in2="result4"
         result="result2"
         operator="in"
         in="result8" />
      <feComposite
         id="feComposite4856"
         in2="result9"
         result="fbSourceGraphic"
         in="result2"
         operator="in" />
      <feComposite
         k4="0"
         k3="0"
         id="feComposite4858"
         in2="fbSourceGraphic"
         operator="arithmetic"
         k2="1"
         k1="0.5"
         in="fbSourceGraphic"
         result="result91" />
      <feBlend
         id="feBlend4860"
         in2="result91"
         in="fbSourceGraphic"
         mode="multiply" />
    </filter>
    <filter
       id="filter4866"
       inkscape:menu="Textures"
       inkscape:label="Watercolor"
       inkscape:menu-tooltip="Cloudy watercolor effect"
       height="2"
       y="-0.5"
       width="1.6"
       x="-0.30000001"
       color-interpolation-filters="sRGB">
      <feGaussianBlur
         id="feGaussianBlur4868"
         stdDeviation="15"
         result="result8" />
      <feTurbulence
         id="feTurbulence4870"
         seed="27"
         result="result7"
         type="fractalNoise"
         numOctaves="5"
         baseFrequency="0.025" />
      <feComposite
         id="feComposite4872"
         in2="result8"
         result="result6"
         operator="over"
         in="result7" />
      <feColorMatrix
         id="feColorMatrix4874"
         result="result9"
         values="1 0 0 0 0 0 1 0 0 0 0 0 1 0 0 0 0 0 6 -4 " />
      <feDisplacementMap
         id="feDisplacementMap4876"
         in2="result9"
         in="result7"
         xChannelSelector="A"
         yChannelSelector="A"
         scale="50"
         result="result4" />
      <feComposite
         id="feComposite4878"
         in2="result4"
         result="result2"
         operator="in"
         in="result8" />
      <feComposite
         id="feComposite4880"
         in2="result9"
         result="fbSourceGraphic"
         in="result2"
         operator="in" />
      <feComposite
         k4="0"
         k3="0"
         id="feComposite4882"
         in2="fbSourceGraphic"
         operator="arithmetic"
         k2="1"
         k1="0.5"
         in="fbSourceGraphic"
         result="result91" />
      <feBlend
         id="feBlend4884"
         in2="result91"
         in="fbSourceGraphic"
         mode="multiply" />
    </filter>
    <filter
       id="filter4466-9"
       inkscape:menu="Textures"
       inkscape:label="Watercolor"
       inkscape:menu-tooltip="Cloudy watercolor effect"
       height="2"
       y="-0.5"
       width="1.6"
       x="-0.30000001"
       color-interpolation-filters="sRGB">
      <feGaussianBlur
         id="feGaussianBlur4468-5"
         stdDeviation="15"
         result="result8" />
      <feTurbulence
         id="feTurbulence4470-7"
         seed="27"
         result="result7"
         type="fractalNoise"
         numOctaves="5"
         baseFrequency="0.025" />
      <feComposite
         id="feComposite4472-3"
         in2="result8"
         result="result6"
         operator="over"
         in="result7" />
      <feColorMatrix
         id="feColorMatrix4474-0"
         result="result9"
         values="1 0 0 0 0 0 1 0 0 0 0 0 1 0 0 0 0 0 6 -4 " />
      <feDisplacementMap
         id="feDisplacementMap4476-8"
         in2="result9"
         in="result7"
         xChannelSelector="A"
         yChannelSelector="A"
         scale="50"
         result="result4" />
      <feComposite
         id="feComposite4478-2"
         in2="result4"
         result="result2"
         operator="in"
         in="result8" />
      <feComposite
         id="feComposite4480-3"
         in2="result9"
         result="fbSourceGraphic"
         in="result2"
         operator="in" />
      <feComposite
         k4="0"
         k3="0"
         id="feComposite4482-3"
         in2="fbSourceGraphic"
         operator="arithmetic"
         k2="1"
         k1="0.5"
         in="fbSourceGraphic"
         result="result91" />
      <feBlend
         id="feBlend4484-5"
         in2="result91"
         in="fbSourceGraphic"
         mode="multiply" />
    </filter>
    <radialGradient
       inkscape:collect="always"
       xlink:href="#linearGradient4526-8"
       id="radialGradient4532-6"
       cx="326.82828"
       cy="563.34369"
       fx="326.82828"
       fy="563.34369"
       r="457.38696"
       gradientTransform="matrix(1,0,0,1.034741,-131.97114,50.59027)"
       gradientUnits="userSpaceOnUse" />
    <linearGradient
       inkscape:collect="always"
       id="linearGradient4526-8">
      <stop
         style="stop-color:#ff6600;stop-opacity:1;"
         offset="0"
         id="stop4528-6" />
      <stop
         style="stop-color:#ff6600;stop-opacity:0;"
         offset="1"
         id="stop4530-9" />
    </linearGradient>
    <filter
       id="filter4916"
       inkscape:menu="Textures"
       inkscape:label="Watercolor"
       inkscape:menu-tooltip="Cloudy watercolor effect"
       height="2"
       y="-0.5"
       width="1.6"
       x="-0.30000001"
       color-interpolation-filters="sRGB">
      <feGaussianBlur
         id="feGaussianBlur4918"
         stdDeviation="15"
         result="result8" />
      <feTurbulence
         id="feTurbulence4920"
         seed="27"
         result="result7"
         type="fractalNoise"
         numOctaves="5"
         baseFrequency="0.025" />
      <feComposite
         id="feComposite4922"
         in2="result8"
         result="result6"
         operator="over"
         in="result7" />
      <feColorMatrix
         id="feColorMatrix4924"
         result="result9"
         values="1 0 0 0 0 0 1 0 0 0 0 0 1 0 0 0 0 0 6 -4 " />
      <feDisplacementMap
         id="feDisplacementMap4926"
         in2="result9"
         in="result7"
         xChannelSelector="A"
         yChannelSelector="A"
         scale="50"
         result="result4" />
      <feComposite
         id="feComposite4928"
         in2="result4"
         result="result2"
         operator="in"
         in="result8" />
      <feComposite
         id="feComposite4930"
         in2="result9"
         result="fbSourceGraphic"
         in="result2"
         operator="in" />
      <feComposite
         k4="0"
         k3="0"
         id="feComposite4932"
         in2="fbSourceGraphic"
         operator="arithmetic"
         k2="1"
         k1="0.5"
         in="fbSourceGraphic"
         result="result91" />
      <feBlend
         id="feBlend4934"
         in2="result91"
         in="fbSourceGraphic"
         mode="multiply" />
    </filter>
    <radialGradient
       inkscape:collect="always"
       xlink:href="#linearGradient4536-1"
       id="radialGradient4542-2"
       cx="326.82828"
       cy="563.34369"
       fx="326.82828"
       fy="563.34369"
       r="457.38696"
       gradientTransform="matrix(0.99990895,-0.01349442,0.00937,0.69429779,-137.2199,246.78716)"
       gradientUnits="userSpaceOnUse" />
    <linearGradient
       inkscape:collect="always"
       id="linearGradient4536-1">
      <stop
         style="stop-color:#ffff00;stop-opacity:1;"
         offset="0"
         id="stop4538-9" />
      <stop
         style="stop-color:#ffff00;stop-opacity:0;"
         offset="1"
         id="stop4540-7" />
    </linearGradient>
    <filter
       id="filter4940"
       inkscape:menu="Textures"
       inkscape:label="Watercolor"
       inkscape:menu-tooltip="Cloudy watercolor effect"
       height="2"
       y="-0.5"
       width="1.6"
       x="-0.30000001"
       color-interpolation-filters="sRGB">
      <feGaussianBlur
         id="feGaussianBlur4942"
         stdDeviation="15"
         result="result8" />
      <feTurbulence
         id="feTurbulence4944"
         seed="27"
         result="result7"
         type="fractalNoise"
         numOctaves="5"
         baseFrequency="0.025" />
      <feComposite
         id="feComposite4946"
         in2="result8"
         result="result6"
         operator="over"
         in="result7" />
      <feColorMatrix
         id="feColorMatrix4948"
         result="result9"
         values="1 0 0 0 0 0 1 0 0 0 0 0 1 0 0 0 0 0 6 -4 " />
      <feDisplacementMap
         id="feDisplacementMap4950"
         in2="result9"
         in="result7"
         xChannelSelector="A"
         yChannelSelector="A"
         scale="50"
         result="result4" />
      <feComposite
         id="feComposite4952"
         in2="result4"
         result="result2"
         operator="in"
         in="result8" />
      <feComposite
         id="feComposite4954"
         in2="result9"
         result="fbSourceGraphic"
         in="result2"
         operator="in" />
      <feComposite
         k4="0"
         k3="0"
         id="feComposite4956"
         in2="fbSourceGraphic"
         operator="arithmetic"
         k2="1"
         k1="0.5"
         in="fbSourceGraphic"
         result="result91" />
      <feBlend
         id="feBlend4958"
         in2="result91"
         in="fbSourceGraphic"
         mode="multiply" />
    </filter>
  </defs>
  <sodipodi:namedview
     id="base"
     pagecolor="#ffffff"
     bordercolor="#666666"
     borderopacity="1.0"
     inkscape:pageopacity="0.0"
     inkscape:pageshadow="2"
     inkscape:zoom="0.35"
     inkscape:cx="375"
     inkscape:cy="520"
     inkscape:document-units="px"
     inkscape:current-layer="layer1"
     showgrid="false"
     inkscape:window-width="927"
     inkscape:window-height="1028"
     inkscape:window-x="993"
     inkscape:window-y="24"
     inkscape:window-maximized="0" />
  <metadata
     id="metadata7">
    <rdf:RDF>
      <cc:Work
         rdf:about="">
        <dc:format>image/svg+xml</dc:format>
        <dc:type
           rdf:resource="http://purl.org/dc/dcmitype/StillImage" />
        <dc:title></dc:title>
      </cc:Work>
    </rdf:RDF>
  </metadata>
  <g
     inkscape:label="Layer 1"
     inkscape:groupmode="layer"
     id="layer1">
    <path
       inkscape:connector-curvature="0"
       id="path3874"
       d="m 101.90818,866.73628 c -2.57187,-1.83103 -7.32726,-3.77706 -10.56753,-4.3245 -3.24025,-0.54743 -9.11725,-2.89739 -13.05998,-5.2221 -3.94275,-2.32472 -16.77297,-8.06144 -28.51165,-12.74827 -23.47284,-9.37187 -36.03163,-15.33202 -34.83275,-16.53089 0.4284,-0.4284 3.54589,0.1572 6.92776,1.30133 5.91126,1.99987 9.72028,1.95107 9.72028,-0.12451 0,-1.17195 -6.57501,-4.47825 -16.42857,-8.26126 -5.17833,-1.98809 -7.26659,-3.60099 -7.59274,-5.86437 -0.33757,-2.34262 0.4649,-3.35166 3.21428,-4.0417 4.97087,-1.24762 4.63028,-4.34527 -0.59263,-5.38985 -3.07932,-0.61587 -4.02301,-1.46061 -3.41161,-3.05391 1.10905,-2.89013 -1.93744,-6.45187 -5.51852,-6.45187 -2.43317,0 -2.66646,-0.55932 -1.63858,-3.92857 1.69057,-5.54152 1.26403,-17.59807 -0.66477,-18.79013 -1.75202,-1.08282 -0.81566,-5.387 3.20561,-14.73542 2.79361,-6.4944 2.9365,-12.01894 0.35037,-13.54632 -1.06387,-0.62833 -2.68082,-2.5649 -3.59323,-4.3035 -0.91481,-1.7432 -2.52318,-2.82945 -3.58574,-2.4217 -1.25659,0.4822 -2.2178,-0.71543 -2.76331,-3.44296 -1.04984,-5.24922 -22.56124,-27.40283 -26.60843,-27.40283 -0.72624,0 -2.64279,-1.8571 -4.25902,-4.12687 -1.61623,-2.26979 -4.6786,-4.56359 -6.80527,-5.09734 -4.76173,-1.19513 -13.87278,-8.9208 -11.46643,-9.72292 2.39892,-0.79964 -5.98952,-10.51146 -10.05569,-11.64211 -1.76786,-0.49157 -3.21429,-1.47846 -3.21429,-2.19307 0,-2.73309 -4.671,-5.78912 -8.84839,-5.78912 -3.71233,0 -4.0949,-0.31773 -2.58018,-2.14286 2.23433,-2.6922 0.26924,-5.37868 -5.76165,-7.87675 -5.49301,-2.27529 -5.34354,-3.71039 0.76165,-7.31253 5.40341,-3.18809 6.17413,-4.76876 2.93184,-6.01294 -2.64515,-1.01505 -7.09372,-9.44905 -5.11138,-9.69063 0.80589,-0.0982 2.26883,-0.27349 3.25097,-0.38947 1.18085,-0.13943 1.68376,-2.36069 1.48472,-6.55755 -0.32956,-6.94904 0.98058,-8.53283 7.08671,-8.56683 3.60753,-0.0201 3.92857,-0.47522 3.92857,-5.56954 0,-4.38243 0.6121,-5.70773 2.91418,-6.30974 2.24839,-0.58797 2.71951,-1.53772 2.06211,-4.15702 -0.57703,-2.29908 0.15646,-4.6771 2.27233,-7.36698 2.64087,-3.35732 2.98903,-5.11513 2.24965,-11.35807 -0.48112,-4.0623 -1.43591,-7.57306 -2.12175,-7.80167 -0.68583,-0.22862 -0.96432,-1.89429 -0.61885,-3.7015 0.44114,-2.30765 -0.63549,-4.47852 -3.61642,-7.29203 -3.65533,-3.45005 -4.14247,-4.76733 -3.50915,-9.48912 0.64458,-4.80568 0.18335,-5.96737 -3.73405,-9.40483 -4.90977,-4.30824 -5.60461,-6.1428 -2.32662,-6.1428 2.78524,0 2.72808,-3.56845 -0.1348,-8.41492 -2.11664,-3.58318 -2.08363,-4.2047 0.4669,-8.79184 3.20037,-5.75589 15.21712,-12.92607 19.85598,-11.8477 1.67487,0.38935 6.36611,-0.72069 10.42497,-2.46677 6.19615,-2.66551 7.90408,-2.89406 10.64899,-1.42503 2.82748,1.51322 4.02061,1.23977 8.82951,-2.02364 7.28315,-4.94248 7.76679,-5.90882 7.08215,-14.15035 -0.42877,-5.16126 0.38677,-9.43741 3.13319,-16.42857 4.87442,-12.40803 13.26453,-19.68819 13.26453,-11.50972 0,1.52506 0.9639,2.77283 2.142,2.77283 1.44891,0 2.16618,-1.5023 2.21671,-4.64286 0.0411,-2.55357 0.10296,-7.42019 0.13746,-10.8147 0.0528,-5.19389 0.43724,-6.00826 2.42615,-5.13946 1.29986,0.56782 4.3961,1.3196 6.88052,1.67061 3.67836,0.51971 4.97339,-0.0581 6.97423,-3.11179 1.35141,-2.0625 4.35939,-5.10455 6.68442,-6.76011 l 4.22731,-3.01012 5.52565,3.10559 5.52565,3.10559 2.91566,-2.91566 c 1.70299,-1.70298 2.91567,-4.79027 2.91567,-7.42279 0,-4.27594 0.134,-4.38585 2.61249,-2.14285 3.7442,3.38846 8.43887,2.91849 12.28323,-1.22964 3.31667,-3.57875 3.33411,-3.58094 4.13478,-0.51918 0.71484,2.73358 1.53429,2.99243 7.38539,2.33293 3.61973,-0.408 9.28194,-0.12654 12.58271,0.62545 11.70216,2.66604 39.99093,3.47181 40.7612,1.16104 0.26306,-0.7892 3.33776,-1.43491 6.83266,-1.43491 4.25693,0 6.61888,-0.68935 7.15578,-2.08847 0.44078,-1.14866 2.0912,-2.49784 3.66762,-2.99817 3.3452,-1.06173 6.5752,-4.1193 10.1122,-9.57234 1.39041,-2.14365 4.65818,-4.78757 7.26168,-5.87539 2.60352,-1.08781 7.84359,-4.35171 11.64462,-7.25309 4.13676,-3.15767 7.94611,-5.00455 9.48971,-4.60089 1.41833,0.3709 4.98869,0.13084 7.93413,-0.53347 3.48206,-0.78533 5.68037,-0.68193 6.28452,0.29559 0.56422,0.91295 2.2616,1.05819 4.32178,0.36979 6.75583,-2.25739 15.93722,0.60251 15.22384,4.74206 -0.27245,1.58107 0.98289,2.64253 3.88309,3.28334 8.22317,1.81693 15.00566,5.53758 16.64217,9.12935 0.90672,1.99001 2.74103,3.96494 4.07627,4.38873 4.38183,1.39073 18.9794,13.57248 21.02095,17.54208 1.09897,2.13684 3.213,5.17088 4.69785,6.74231 1.48485,1.57143 4.82247,5.29453 7.41696,8.27356 3.94977,4.53522 5.7631,5.49044 11.1458,5.87141 3.53571,0.25024 7.39286,0.79301 8.57143,1.20614 10.56076,3.70197 14.3371,3.9571 24.46747,1.65299 10.50606,-2.38955 22.67561,-2.13376 27.85774,0.58553 12.99015,6.8165 27.88832,13.38732 28.64277,12.63286 0.50959,-0.50959 2.09795,0.99975 3.5297,3.35407 1.43175,2.35432 3.2353,4.28058 4.00792,4.28058 0.7726,0 1.0347,0.96429 0.58244,2.14286 -0.61636,1.6062 0.23267,2.14286 3.39013,2.14286 3.66361,0 4.43139,0.73078 5.89293,5.609 0.92428,3.08496 3.6393,7.25723 6.03338,9.27172 2.39408,2.01448 3.94519,4.32234 3.44692,5.12858 -0.49829,0.80623 -1.5044,1.09602 -2.23583,0.64398 -1.894,-1.17056 -1.64921,1.31308 0.32389,3.28617 2.19715,2.19716 -0.90139,6.06055 -4.86073,6.06055 -2.36762,0 -2.55485,-0.36425 -1.09276,-2.12595 2.58533,-3.11514 -2.06069,-4.57485 -5.04916,-1.58638 -1.2537,1.25371 -3.79514,2.65988 -5.64763,3.12482 -3.64894,0.91583 -5.72532,4.25847 -3.49972,5.63397 0.75842,0.46873 2.56152,0.47691 4.00688,0.0182 1.44536,-0.45873 4.49317,0.13868 6.77293,1.32756 2.27976,1.1889 5.61406,2.16559 7.40956,2.17043 3.76484,0.0102 9.39065,3.2445 14.77287,8.4931 2.06343,2.01221 5.48284,4.84708 7.59869,6.2997 2.11584,1.45263 3.55944,3.39044 3.20801,4.30625 -0.35143,0.91582 1.63803,3.26302 4.42103,5.21602 2.783,1.95298 8.56028,6.92588 12.83841,11.05088 4.84232,4.66898 9.03282,7.5 11.10159,7.5 6.01436,0 10.8689,2.77426 12.52307,7.15666 1.03699,2.74729 2.64784,4.30423 4.51356,4.36247 2.70818,0.0846 2.68735,0.17646 -0.3132,1.38253 -2.54477,1.02287 -3.21429,2.4256 -3.21429,6.73444 0,2.99335 -1.00074,6.87122 -2.22386,8.61746 -1.22312,1.74626 -1.62815,3.17502 -0.90008,3.17502 1.89431,0 3.1423,13.23382 1.44231,15.29457 -1.71101,2.0741 -0.35215,4.70543 2.42996,4.70543 1.10456,0 2.77877,1.44642 3.72047,3.21428 0.9417,1.76786 2.73217,3.99742 3.97883,4.95457 1.49819,1.15026 1.66124,1.75569 0.48094,1.78572 -2.46385,0.0627 -2.2535,3.84595 0.26765,4.81341 1.16667,0.44769 2.24622,-0.16206 2.5,-1.41203 0.37784,-1.8611 1.0064,-1.7586 4.08062,0.66543 3.11408,2.45546 3.58428,3.85453 3.28658,9.77914 -0.19109,3.80258 -0.37995,7.96379 -0.4197,9.24715 -0.0397,1.28335 -1.3067,2.65618 -2.81543,3.05073 -2.29442,0.6 -2.6198,1.6369 -1.98916,6.33874 0.64986,4.84506 0.14086,6.29264 -3.68543,10.48193 -2.44167,2.67328 -4.43941,5.52911 -4.43941,6.34625 0,0.81716 -1.44643,2.12032 -3.21429,2.89592 -4.03786,1.77151 -5.26357,9.12093 -1.84063,11.03651 1.32087,0.73919 1.99553,2.33277 1.5639,3.69399 -0.46048,1.4522 0.94833,4.22043 3.58122,7.03683 2.38718,2.55357 3.79573,4.64285 3.13011,4.64285 -1.67223,0 -1.21256,5.58253 0.87259,10.59742 1.18741,2.8558 1.3064,5.39364 0.37777,8.05753 -0.89914,2.57925 -0.85082,4.39348 0.14351,5.38781 1.04647,1.04647 0.39703,2.80893 -2.15078,5.83683 -2.00746,2.38573 -4.06789,6.24066 -4.57873,8.56651 -0.85646,3.89945 -1.50569,4.28218 -8.33532,4.91379 -4.07357,0.37674 -9.01364,0.69457 -10.97792,0.70629 -4.0424,0.0241 -20.66162,3.74124 -26.28333,5.8786 -2.04417,0.7772 -3.71667,2.39328 -3.71667,3.5913 0,2.55022 1.64415,2.81975 3.83522,0.6287 0.85225,-0.85225 3.0701,-1.32028 4.92858,-1.04005 l 3.37905,0.5095 -3.57143,2.00517 c -1.96428,1.10282 -5.97638,1.86658 -8.91577,1.69719 -2.93938,-0.16937 -6.63581,0.38321 -8.21428,1.22799 -2.29492,1.2282 -2.86995,1.09652 -2.86995,-0.65718 0,-3.57665 -3.97078,-2.50338 -7.27553,1.96653 -3.47811,4.70439 -11.65718,7.07597 -14.95742,4.33702 -2.9779,-2.47145 -6.60073,-0.5151 -6.07278,3.27931 0.36855,2.64876 -0.142,3.1414 -2.86087,2.76097 -5.2523,-0.73491 -15.39345,11.42749 -10.9501,13.13256 2.94516,1.13017 2.64446,6.56457 -0.55861,10.09557 -1.47142,1.62207 -3.23927,4.71707 -3.92857,6.87779 -0.68929,2.16071 -1.89612,3.99197 -2.68183,4.06944 -3.4883,0.34399 -6.43033,3.07183 -6.45044,5.98081 -0.0129,1.8859 -0.44586,2.50279 -1.07143,1.52713 -1.71303,-2.67165 -35.26547,-2.40168 -44.67642,0.35947 -6.69783,1.96515 -48.0214,5.14092 -49.84028,3.8303 -0.3355,-0.24174 0.56628,-1.29965 2.00397,-2.35091 3.68431,-2.69404 1.60834,-5.45801 -2.83156,-3.76996 -8.69388,3.3054 -31.89044,5.8745 -64.16738,7.10673 -31.8485,1.21589 -42.91239,2.70582 -40.20408,5.41414 0.47535,0.47533 -2.83364,2.83396 -7.35328,5.2414 -4.51964,2.40743 -8.89644,5.75503 -9.72623,7.43909 -2.48499,5.0433 -5.21224,7.71576 -9.85486,9.65684 -2.4197,1.01169 -5.31164,3.54597 -6.42655,5.63176 -1.11492,2.08577 -2.8667,3.79233 -3.89286,3.79233 -1.31114,0 -1.61096,1.27394 -1.0086,4.28571 1.05307,5.26539 -1.07682,5.46109 -7.74756,0.7119 l 0,-10e-6 z m 38.24756,-93.8062 c 0,-1.53373 0.6247,-2.40252 1.38821,-1.93064 0.76353,0.47188 2.88509,-0.12286 4.71457,-1.32155 2.94665,-1.9307 3.67185,-1.93751 6.35286,-0.0597 3.49249,2.44623 7.54436,1.43141 7.54436,-1.88956 0,-1.77001 0.38096,-1.89477 1.71428,-0.56144 2.7715,2.7715 4.12066,1.97813 3.15806,-1.85714 -0.77027,-3.06905 -0.41238,-3.57143 2.54422,-3.57143 4.08127,0 6.86915,-2.43513 6.86915,-6 0,-1.41429 0.9869,-2.57143 2.19312,-2.57143 1.20621,0 3.78888,-1.04559 5.73927,-2.32353 2.77786,-1.82011 3.19333,-2.74864 1.91767,-4.28571 -1.29516,-1.56058 -0.9987,-1.96219 1.44843,-1.96219 1.6923,0 3.41967,-0.89324 3.83861,-1.98499 0.42202,-1.09975 1.92972,-1.67955 3.38076,-1.30008 1.44049,0.37668 4.23867,-0.37632 6.21819,-1.67334 2.56555,-1.68102 5.06888,-2.0825 8.71725,-1.39808 3.37742,0.63362 5.11813,0.42023 5.11813,-0.62738 0,-2.09784 12.91303,-2.05883 25.36606,0.0766 11.97454,2.05341 17.58634,0.96093 17.1132,-3.33154 -0.25274,-2.29293 1.12877,-3.79737 5.55514,-6.04942 7.42813,-3.7793 9.71886,-7.04481 7.65156,-10.90758 -0.8473,-1.58322 -1.10193,-5.0845 -0.57429,-7.89706 0.58356,-3.11063 0.0956,-7.90766 -1.26968,-12.47999 -2.97879,-9.97644 -3.9297,-23.85562 -1.63445,-23.85562 0.95059,0 2.55945,-1.00143 3.57525,-2.2254 1.0158,-1.22396 3.98737,-3.11973 6.60348,-4.21282 2.61613,-1.09308 4.75659,-2.66308 4.75659,-3.48888 0,-0.82582 0.95884,-1.50148 2.13076,-1.50148 1.17191,0 2.90554,-1.24064 3.8525,-2.75697 1.31344,-2.10315 2.33268,-2.43003 4.29782,-1.37831 1.41683,0.75827 2.63156,1.19533 2.69938,0.97126 0.0678,-0.22408 0.31071,-3.5352 0.53974,-7.35808 0.23016,-3.84157 1.29327,-7.56454 2.37668,-8.32304 1.51819,-1.06288 1.55755,-1.53578 0.17455,-2.09694 -2.13719,-0.86719 -2.41417,-11.35803 -0.33385,-12.64374 2.01365,-1.2445 0.31796,-3.55716 -2.60761,-3.5564 -2.01094,5.1e-4 -2.41569,-1.49545 -2.41569,-8.92858 0,-5.58168 0.66946,-9.35748 1.78572,-10.07161 0.98214,-0.62833 1.78571,-2.00176 1.78571,-3.05209 0,-1.1681 2.49633,-2.28401 6.42857,-2.87368 3.53572,-0.53022 6.42858,-1.53494 6.42858,-2.23273 0,-0.69779 3.51798,-1.01253 7.81774,-0.69941 8.77424,0.63894 11.42363,-1.27409 6.8705,-4.96099 -2.56329,-2.07563 -2.7036,-2.85497 -1.18004,-6.55436 1.50094,-3.64451 1.33642,-4.75913 -1.24668,-8.44577 -1.6367,-2.33594 -3.77938,-5.114 -4.76152,-6.17347 -2.11393,-2.28037 -2.3273,-5.5046 -0.44142,-6.67014 0.77657,-0.47995 0.2148,-3.35363 -1.33017,-6.80445 -2.62527,-5.86374 -2.6238,-6.00912 0.0804,-7.90325 2.53956,-1.77876 2.5886,-2.25126 0.62743,-6.04375 -1.44626,-2.79675 -1.73215,-5.17322 -0.89282,-7.42167 0.67907,-1.81915 0.69806,-4.73223 0.0421,-6.47351 -0.83859,-2.22639 -0.52968,-3.82879 1.04091,-5.39937 1.40161,-1.40162 1.91743,-3.49231 1.385,-5.61366 -0.57656,-2.29724 -0.14907,-3.64861 1.33427,-4.21782 1.93543,-0.7427 1.94479,-1.29752 0.0827,-4.89849 -1.155,-2.23351 -4.07033,-6.17019 -6.47853,-8.74818 -2.4082,-2.57798 -4.37855,-5.26211 -4.37855,-5.96473 0,-0.70262 -3.05357,-1.32332 -6.78571,-1.37933 -3.73214,-0.056 -9.35714,-0.47537 -12.5,-0.93192 -3.14286,-0.45655 -7,-0.72777 -8.57143,-0.60271 -16.45577,1.30961 -26.42857,-0.55634 -26.42857,-4.9449 0,-1.09453 -1.23639,-1.99006 -2.74753,-1.99006 -1.51116,0 -4.56473,-1.51402 -6.78571,-3.36448 -2.221,-1.85046 -6.41402,-4.1388 -9.3178,-5.0852 -3.6379,-1.18566 -5.03409,-2.36056 -4.49002,-3.77838 0.89745,-2.33869 -3.26245,-2.80747 -6.53431,-0.73634 -1.35269,0.85627 -3.31003,0.32248 -5.93562,-1.6187 -4.03708,-2.98474 -7.04615,-2.51671 -7.04615,1.09598 0,1.27771 1.445,2.05855 3.80953,2.05855 5.11085,0 3.40134,1.45024 -2.58462,2.19261 -2.63798,0.32716 -6.08206,1.23597 -7.65348,2.01958 -7.23352,3.60707 -15.6235,5.62019 -17.3727,4.16848 -1.26586,-1.05057 -2.67198,-0.86824 -4.80022,0.62245 -3.23167,2.26355 -4.53567,2.01477 -19.42334,-3.70568 -4.67803,-1.79749 -7.25016,-3.60944 -7.14286,-5.03183 0.10457,-1.38695 -1.47721,-2.57212 -4.20654,-3.15171 -3.83583,-0.81455 -18.67927,-7.98287 -20.62577,-9.96078 -0.39286,-0.39919 -3.60715,-1.75829 -7.14286,-3.02022 -6.1065,-2.17946 -6.82221,-2.14509 -14.28571,0.68594 -4.32143,1.63919 -9.50602,4.66169 -11.5213,6.71667 -2.0153,2.05497 -5.45766,4.18644 -7.64969,4.73661 -3.00371,0.75389 -3.81157,1.66544 -3.27941,3.7004 0.41668,1.59342 -0.16823,3.03561 -1.42712,3.51869 -1.17327,0.45022 -1.77316,1.75686 -1.3331,2.90365 1.02827,2.67963 -1.37404,4.16548 -4.50066,2.78368 -1.33737,-0.59105 -5.32444,-1.21447 -8.86015,-1.38538 -3.53572,-0.1709 -9.82622,-0.47164 -13.9789,-0.66829 -9.03661,-0.42795 -10.73638,0.74696 -6.11921,4.22969 3.21786,2.42724 3.26084,2.63742 0.69294,3.38886 -1.50573,0.44061 -6.59483,1.24683 -11.30912,1.7916 -11.20364,1.29464 -15,2.81345 -15,6.00105 0,1.43373 -0.75399,3.36077 -1.67553,4.28232 -1.88428,1.88427 0.48074,8.89589 3.00058,8.89589 0.7646,0 0.458,2.22174 -0.68366,4.95412 -2.86979,6.86837 -2.62366,8.97541 1.6404,14.04295 3.44384,4.09277 3.53356,4.5388 1.24897,6.20932 -1.63683,1.19688 -2.22612,3.03054 -1.75909,5.47367 0.38627,2.02061 0.13689,4.0233 -0.55419,4.4504 -0.6936,0.42867 -0.83174,7.76993 -0.30836,16.38733 l 0.94813,15.61075 -4.50005,0.90002 c -2.47503,0.49501 -4.50006,1.46251 -4.50006,2.15001 0,0.6875 -1.57519,1.25 -3.50044,1.25 -1.92524,0 -4.01453,0.80357 -4.64286,1.78572 -0.62832,0.98214 -2.42812,2.50813 -3.99955,3.39107 -1.90707,1.07153 -2.85294,3.0839 -2.84451,6.05177 0.0101,3.58019 -0.75884,4.71536 -3.94741,5.8269 -4.94363,1.72336 -6.69274,5.65149 -3.34957,7.52241 1.86168,1.04186 2.06204,1.82582 0.84226,3.29556 -2.08346,2.51042 -2.14464,8.93179 -0.13369,14.03217 0.87791,2.22665 1.23927,4.62599 0.80302,5.33186 -0.43626,0.70587 0.84486,3.69401 2.84692,6.64031 2.00207,2.94629 3.64012,6.19829 3.64012,7.22666 0,2.60853 8.6108,18.89557 9.98991,18.89557 0.62091,0 1.54604,1.66193 2.05586,3.69319 0.50981,2.03126 2.3734,5.08483 4.14131,6.78571 3.93601,3.7868 10.23132,18.8849 12.33587,29.58529 1.38191,7.02614 2.23148,8.35803 7.51775,11.78571 3.27788,2.12542 6.79539,3.86439 7.81668,3.86439 1.0213,0 1.85691,0.65701 1.85691,1.46003 0,2.3537 13.08215,9.97141 17.0654,9.93717 2.00688,-0.0173 6.44354,-1.29953 9.85922,-2.8495 3.5647,-1.61757 7.61375,-2.46589 9.50463,-1.9913 2.24037,0.56228 3.7285,0.0509 4.65159,-1.5986 1.11321,-1.9892 1.90886,-2.13024 4.42396,-0.7842 1.68664,0.90267 3.06662,2.58917 3.06662,3.74778 0,1.15862 1.20602,3.1392 2.68003,4.4013 1.47403,1.26209 2.39095,3.40019 2.03762,4.75133 -0.35333,1.35115 0.99415,4.40159 2.99441,6.77876 2.00027,2.37717 3.24682,4.71217 2.7701,5.18887 -0.4767,0.47672 -0.0407,2.86074 0.9687,5.29786 1.00949,2.43711 1.7831,6.27144 1.71914,8.52073 -0.19251,6.77085 5.32226,10.93117 16.00668,12.07537 7.33878,0.78593 9.25385,1.51416 9.83601,3.74034 0.93299,3.56774 5.27303,2.11073 5.27303,-1.77024 l 0,0 z"
       style="fill:#aa4400;stroke:none;filter:url(#filter4466-9)"
       transform="matrix(1.2199051,0,0,1.2736267,55.721358,-223.9153)" />
    <path
       style="fill:url(#radialGradient4532-6);fill-opacity:1;stroke:none;filter:url(#filter4466-9)"
       d="m 101.90818,866.73628 c -2.57187,-1.83103 -7.32726,-3.77706 -10.56753,-4.3245 -3.24025,-0.54743 -9.11725,-2.89739 -13.05998,-5.2221 -3.94275,-2.32472 -16.77297,-8.06144 -28.51165,-12.74827 -23.47284,-9.37187 -36.03163,-15.33202 -34.83275,-16.53089 0.4284,-0.4284 3.54589,0.1572 6.92776,1.30133 5.91126,1.99987 9.72028,1.95107 9.72028,-0.12451 0,-1.17195 -6.57501,-4.47825 -16.42857,-8.26126 -5.17833,-1.98809 -7.26659,-3.60099 -7.59274,-5.86437 -0.33757,-2.34262 0.4649,-3.35166 3.21428,-4.0417 4.97087,-1.24762 4.63028,-4.34527 -0.59263,-5.38985 -3.07932,-0.61587 -4.02301,-1.46061 -3.41161,-3.05391 1.10905,-2.89013 -1.93744,-6.45187 -5.51852,-6.45187 -2.43317,0 -2.66646,-0.55932 -1.63858,-3.92857 1.69057,-5.54152 1.26403,-17.59807 -0.66477,-18.79013 -1.75202,-1.08282 -0.81566,-5.387 3.20561,-14.73542 2.79361,-6.4944 2.9365,-12.01894 0.35037,-13.54632 -1.06387,-0.62833 -2.68082,-2.5649 -3.59323,-4.3035 -0.91481,-1.7432 -2.52318,-2.82945 -3.58574,-2.4217 -1.25659,0.4822 -2.2178,-0.71543 -2.76331,-3.44296 -1.04984,-5.24922 -22.56124,-27.40283 -26.60843,-27.40283 -0.72624,0 -2.64279,-1.8571 -4.25902,-4.12687 -1.61623,-2.26979 -4.6786,-4.56359 -6.80527,-5.09734 -4.76173,-1.19513 -13.87278,-8.9208 -11.46643,-9.72292 2.39892,-0.79964 -5.98952,-10.51146 -10.05569,-11.64211 -1.76786,-0.49157 -3.21429,-1.47846 -3.21429,-2.19307 0,-2.73309 -4.671,-5.78912 -8.84839,-5.78912 -3.71233,0 -4.0949,-0.31773 -2.58018,-2.14286 2.23433,-2.6922 0.26924,-5.37868 -5.76165,-7.87675 -5.49301,-2.27529 -5.34354,-3.71039 0.76165,-7.31253 5.40341,-3.18809 6.17413,-4.76876 2.93184,-6.01294 -2.64515,-1.01505 -7.09372,-9.44905 -5.11138,-9.69063 0.80589,-0.0982 2.26883,-0.27349 3.25097,-0.38947 1.18085,-0.13943 1.68376,-2.36069 1.48472,-6.55755 -0.32956,-6.94904 0.98058,-8.53283 7.08671,-8.56683 3.60753,-0.0201 3.92857,-0.47522 3.92857,-5.56954 0,-4.38243 0.6121,-5.70773 2.91418,-6.30974 2.24839,-0.58797 2.71951,-1.53772 2.06211,-4.15702 -0.57703,-2.29908 0.15646,-4.6771 2.27233,-7.36698 2.64087,-3.35732 2.98903,-5.11513 2.24965,-11.35807 -0.48112,-4.0623 -1.43591,-7.57306 -2.12175,-7.80167 -0.68583,-0.22862 -0.96432,-1.89429 -0.61885,-3.7015 0.44114,-2.30765 -0.63549,-4.47852 -3.61642,-7.29203 -3.65533,-3.45005 -4.14247,-4.76733 -3.50915,-9.48912 0.64458,-4.80568 0.18335,-5.96737 -3.73405,-9.40483 -4.90977,-4.30824 -5.60461,-6.1428 -2.32662,-6.1428 2.78524,0 2.72808,-3.56845 -0.1348,-8.41492 -2.11664,-3.58318 -2.08363,-4.2047 0.4669,-8.79184 3.20037,-5.75589 15.21712,-12.92607 19.85598,-11.8477 1.67487,0.38935 6.36611,-0.72069 10.42497,-2.46677 6.19615,-2.66551 7.90408,-2.89406 10.64899,-1.42503 2.82748,1.51322 4.02061,1.23977 8.82951,-2.02364 7.28315,-4.94248 7.76679,-5.90882 7.08215,-14.15035 -0.42877,-5.16126 0.38677,-9.43741 3.13319,-16.42857 4.87442,-12.40803 13.26453,-19.68819 13.26453,-11.50972 0,1.52506 0.9639,2.77283 2.142,2.77283 1.44891,0 2.16618,-1.5023 2.21671,-4.64286 0.0411,-2.55357 0.10296,-7.42019 0.13746,-10.8147 0.0528,-5.19389 0.43724,-6.00826 2.42615,-5.13946 1.29986,0.56782 4.3961,1.3196 6.88052,1.67061 3.67836,0.51971 4.97339,-0.0581 6.97423,-3.11179 1.35141,-2.0625 4.35939,-5.10455 6.68442,-6.76011 l 4.22731,-3.01012 5.52565,3.10559 5.52565,3.10559 2.91566,-2.91566 c 1.70299,-1.70298 2.91567,-4.79027 2.91567,-7.42279 0,-4.27594 0.134,-4.38585 2.61249,-2.14285 3.7442,3.38846 8.43887,2.91849 12.28323,-1.22964 3.31667,-3.57875 3.33411,-3.58094 4.13478,-0.51918 0.71484,2.73358 1.53429,2.99243 7.38539,2.33293 3.61973,-0.408 9.28194,-0.12654 12.58271,0.62545 11.70216,2.66604 39.99093,3.47181 40.7612,1.16104 0.26306,-0.7892 3.33776,-1.43491 6.83266,-1.43491 4.25693,0 6.61888,-0.68935 7.15578,-2.08847 0.44078,-1.14866 2.0912,-2.49784 3.66762,-2.99817 3.3452,-1.06173 6.5752,-4.1193 10.1122,-9.57234 1.39041,-2.14365 4.65818,-4.78757 7.26168,-5.87539 2.60352,-1.08781 7.84359,-4.35171 11.64462,-7.25309 4.13676,-3.15767 7.94611,-5.00455 9.48971,-4.60089 1.41833,0.3709 4.98869,0.13084 7.93413,-0.53347 3.48206,-0.78533 5.68037,-0.68193 6.28452,0.29559 0.56422,0.91295 2.2616,1.05819 4.32178,0.36979 6.75583,-2.25739 15.93722,0.60251 15.22384,4.74206 -0.27245,1.58107 0.98289,2.64253 3.88309,3.28334 8.22317,1.81693 15.00566,5.53758 16.64217,9.12935 0.90672,1.99001 2.74103,3.96494 4.07627,4.38873 4.38183,1.39073 18.9794,13.57248 21.02095,17.54208 1.09897,2.13684 3.213,5.17088 4.69785,6.74231 1.48485,1.57143 4.82247,5.29453 7.41696,8.27356 3.94977,4.53522 5.7631,5.49044 11.1458,5.87141 3.53571,0.25024 7.39286,0.79301 8.57143,1.20614 10.56076,3.70197 14.3371,3.9571 24.46747,1.65299 10.50606,-2.38955 22.67561,-2.13376 27.85774,0.58553 12.99015,6.8165 27.88832,13.38732 28.64277,12.63286 0.50959,-0.50959 2.09795,0.99975 3.5297,3.35407 1.43175,2.35432 3.2353,4.28058 4.00792,4.28058 0.7726,0 1.0347,0.96429 0.58244,2.14286 -0.61636,1.6062 0.23267,2.14286 3.39013,2.14286 3.66361,0 4.43139,0.73078 5.89293,5.609 0.92428,3.08496 3.6393,7.25723 6.03338,9.27172 2.39408,2.01448 3.94519,4.32234 3.44692,5.12858 -0.49829,0.80623 -1.5044,1.09602 -2.23583,0.64398 -1.894,-1.17056 -1.64921,1.31308 0.32389,3.28617 2.19715,2.19716 -0.90139,6.06055 -4.86073,6.06055 -2.36762,0 -2.55485,-0.36425 -1.09276,-2.12595 2.58533,-3.11514 -2.06069,-4.57485 -5.04916,-1.58638 -1.2537,1.25371 -3.79514,2.65988 -5.64763,3.12482 -3.64894,0.91583 -5.72532,4.25847 -3.49972,5.63397 0.75842,0.46873 2.56152,0.47691 4.00688,0.0182 1.44536,-0.45873 4.49317,0.13868 6.77293,1.32756 2.27976,1.1889 5.61406,2.16559 7.40956,2.17043 3.76484,0.0102 9.39065,3.2445 14.77287,8.4931 2.06343,2.01221 5.48284,4.84708 7.59869,6.2997 2.11584,1.45263 3.55944,3.39044 3.20801,4.30625 -0.35143,0.91582 1.63803,3.26302 4.42103,5.21602 2.783,1.95298 8.56028,6.92588 12.83841,11.05088 4.84232,4.66898 9.03282,7.5 11.10159,7.5 6.01436,0 10.8689,2.77426 12.52307,7.15666 1.03699,2.74729 2.64784,4.30423 4.51356,4.36247 2.70818,0.0846 2.68735,0.17646 -0.3132,1.38253 -2.54477,1.02287 -3.21429,2.4256 -3.21429,6.73444 0,2.99335 -1.00074,6.87122 -2.22386,8.61746 -1.22312,1.74626 -1.62815,3.17502 -0.90008,3.17502 1.89431,0 3.1423,13.23382 1.44231,15.29457 -1.71101,2.0741 -0.35215,4.70543 2.42996,4.70543 1.10456,0 2.77877,1.44642 3.72047,3.21428 0.9417,1.76786 2.73217,3.99742 3.97883,4.95457 1.49819,1.15026 1.66124,1.75569 0.48094,1.78572 -2.46385,0.0627 -2.2535,3.84595 0.26765,4.81341 1.16667,0.44769 2.24622,-0.16206 2.5,-1.41203 0.37784,-1.8611 1.0064,-1.7586 4.08062,0.66543 3.11408,2.45546 3.58428,3.85453 3.28658,9.77914 -0.19109,3.80258 -0.37995,7.96379 -0.4197,9.24715 -0.0397,1.28335 -1.3067,2.65618 -2.81543,3.05073 -2.29442,0.6 -2.6198,1.6369 -1.98916,6.33874 0.64986,4.84506 0.14086,6.29264 -3.68543,10.48193 -2.44167,2.67328 -4.43941,5.52911 -4.43941,6.34625 0,0.81716 -1.44643,2.12032 -3.21429,2.89592 -4.03786,1.77151 -5.26357,9.12093 -1.84063,11.03651 1.32087,0.73919 1.99553,2.33277 1.5639,3.69399 -0.46048,1.4522 0.94833,4.22043 3.58122,7.03683 2.38718,2.55357 3.79573,4.64285 3.13011,4.64285 -1.67223,0 -1.21256,5.58253 0.87259,10.59742 1.18741,2.8558 1.3064,5.39364 0.37777,8.05753 -0.89914,2.57925 -0.85082,4.39348 0.14351,5.38781 1.04647,1.04647 0.39703,2.80893 -2.15078,5.83683 -2.00746,2.38573 -4.06789,6.24066 -4.57873,8.56651 -0.85646,3.89945 -1.50569,4.28218 -8.33532,4.91379 -4.07357,0.37674 -9.01364,0.69457 -10.97792,0.70629 -4.0424,0.0241 -20.66162,3.74124 -26.28333,5.8786 -2.04417,0.7772 -3.71667,2.39328 -3.71667,3.5913 0,2.55022 1.64415,2.81975 3.83522,0.6287 0.85225,-0.85225 3.0701,-1.32028 4.92858,-1.04005 l 3.37905,0.5095 -3.57143,2.00517 c -1.96428,1.10282 -5.97638,1.86658 -8.91577,1.69719 -2.93938,-0.16937 -6.63581,0.38321 -8.21428,1.22799 -2.29492,1.2282 -2.86995,1.09652 -2.86995,-0.65718 0,-3.57665 -3.97078,-2.50338 -7.27553,1.96653 -3.47811,4.70439 -11.65718,7.07597 -14.95742,4.33702 -2.9779,-2.47145 -6.60073,-0.5151 -6.07278,3.27931 0.36855,2.64876 -0.142,3.1414 -2.86087,2.76097 -5.2523,-0.73491 -15.39345,11.42749 -10.9501,13.13256 2.94516,1.13017 2.64446,6.56457 -0.55861,10.09557 -1.47142,1.62207 -3.23927,4.71707 -3.92857,6.87779 -0.68929,2.16071 -1.89612,3.99197 -2.68183,4.06944 -3.4883,0.34399 -6.43033,3.07183 -6.45044,5.98081 -0.0129,1.8859 -0.44586,2.50279 -1.07143,1.52713 -1.71303,-2.67165 -35.26547,-2.40168 -44.67642,0.35947 -6.69783,1.96515 -48.0214,5.14092 -49.84028,3.8303 -0.3355,-0.24174 0.56628,-1.29965 2.00397,-2.35091 3.68431,-2.69404 1.60834,-5.45801 -2.83156,-3.76996 -8.69388,3.3054 -31.89044,5.8745 -64.16738,7.10673 -31.8485,1.21589 -42.91239,2.70582 -40.20408,5.41414 0.47535,0.47533 -2.83364,2.83396 -7.35328,5.2414 -4.51964,2.40743 -8.89644,5.75503 -9.72623,7.43909 -2.48499,5.0433 -5.21224,7.71576 -9.85486,9.65684 -2.4197,1.01169 -5.31164,3.54597 -6.42655,5.63176 -1.11492,2.08577 -2.8667,3.79233 -3.89286,3.79233 -1.31114,0 -1.61096,1.27394 -1.0086,4.28571 1.05307,5.26539 -1.07682,5.46109 -7.74756,0.7119 l 0,-10e-6 z m 38.24756,-93.8062 c 0,-1.53373 0.6247,-2.40252 1.38821,-1.93064 0.76353,0.47188 2.88509,-0.12286 4.71457,-1.32155 2.94665,-1.9307 3.67185,-1.93751 6.35286,-0.0597 3.49249,2.44623 7.54436,1.43141 7.54436,-1.88956 0,-1.77001 0.38096,-1.89477 1.71428,-0.56144 2.7715,2.7715 4.12066,1.97813 3.15806,-1.85714 -0.77027,-3.06905 -0.41238,-3.57143 2.54422,-3.57143 4.08127,0 6.86915,-2.43513 6.86915,-6 0,-1.41429 0.9869,-2.57143 2.19312,-2.57143 1.20621,0 3.78888,-1.04559 5.73927,-2.32353 2.77786,-1.82011 3.19333,-2.74864 1.91767,-4.28571 -1.29516,-1.56058 -0.9987,-1.96219 1.44843,-1.96219 1.6923,0 3.41967,-0.89324 3.83861,-1.98499 0.42202,-1.09975 1.92972,-1.67955 3.38076,-1.30008 1.44049,0.37668 4.23867,-0.37632 6.21819,-1.67334 2.56555,-1.68102 5.06888,-2.0825 8.71725,-1.39808 3.37742,0.63362 5.11813,0.42023 5.11813,-0.62738 0,-2.09784 12.91303,-2.05883 25.36606,0.0766 11.97454,2.05341 17.58634,0.96093 17.1132,-3.33154 -0.25274,-2.29293 1.12877,-3.79737 5.55514,-6.04942 7.42813,-3.7793 9.71886,-7.04481 7.65156,-10.90758 -0.8473,-1.58322 -1.10193,-5.0845 -0.57429,-7.89706 0.58356,-3.11063 0.0956,-7.90766 -1.26968,-12.47999 -2.97879,-9.97644 -3.9297,-23.85562 -1.63445,-23.85562 0.95059,0 2.55945,-1.00143 3.57525,-2.2254 1.0158,-1.22396 3.98737,-3.11973 6.60348,-4.21282 2.61613,-1.09308 4.75659,-2.66308 4.75659,-3.48888 0,-0.82582 0.95884,-1.50148 2.13076,-1.50148 1.17191,0 2.90554,-1.24064 3.8525,-2.75697 1.31344,-2.10315 2.33268,-2.43003 4.29782,-1.37831 1.41683,0.75827 2.63156,1.19533 2.69938,0.97126 0.0678,-0.22408 0.31071,-3.5352 0.53974,-7.35808 0.23016,-3.84157 1.29327,-7.56454 2.37668,-8.32304 1.51819,-1.06288 1.55755,-1.53578 0.17455,-2.09694 -2.13719,-0.86719 -2.41417,-11.35803 -0.33385,-12.64374 2.01365,-1.2445 0.31796,-3.55716 -2.60761,-3.5564 -2.01094,5.1e-4 -2.41569,-1.49545 -2.41569,-8.92858 0,-5.58168 0.66946,-9.35748 1.78572,-10.07161 0.98214,-0.62833 1.78571,-2.00176 1.78571,-3.05209 0,-1.1681 2.49633,-2.28401 6.42857,-2.87368 3.53572,-0.53022 6.42858,-1.53494 6.42858,-2.23273 0,-0.69779 3.51798,-1.01253 7.81774,-0.69941 8.77424,0.63894 11.42363,-1.27409 6.8705,-4.96099 -2.56329,-2.07563 -2.7036,-2.85497 -1.18004,-6.55436 1.50094,-3.64451 1.33642,-4.75913 -1.24668,-8.44577 -1.6367,-2.33594 -3.77938,-5.114 -4.76152,-6.17347 -2.11393,-2.28037 -2.3273,-5.5046 -0.44142,-6.67014 0.77657,-0.47995 0.2148,-3.35363 -1.33017,-6.80445 -2.62527,-5.86374 -2.6238,-6.00912 0.0804,-7.90325 2.53956,-1.77876 2.5886,-2.25126 0.62743,-6.04375 -1.44626,-2.79675 -1.73215,-5.17322 -0.89282,-7.42167 0.67907,-1.81915 0.69806,-4.73223 0.0421,-6.47351 -0.83859,-2.22639 -0.52968,-3.82879 1.04091,-5.39937 1.40161,-1.40162 1.91743,-3.49231 1.385,-5.61366 -0.57656,-2.29724 -0.14907,-3.64861 1.33427,-4.21782 1.93543,-0.7427 1.94479,-1.29752 0.0827,-4.89849 -1.155,-2.23351 -4.07033,-6.17019 -6.47853,-8.74818 -2.4082,-2.57798 -4.37855,-5.26211 -4.37855,-5.96473 0,-0.70262 -3.05357,-1.32332 -6.78571,-1.37933 -3.73214,-0.056 -9.35714,-0.47537 -12.5,-0.93192 -3.14286,-0.45655 -7,-0.72777 -8.57143,-0.60271 -16.45577,1.30961 -26.42857,-0.55634 -26.42857,-4.9449 0,-1.09453 -1.23639,-1.99006 -2.74753,-1.99006 -1.51116,0 -4.56473,-1.51402 -6.78571,-3.36448 -2.221,-1.85046 -6.41402,-4.1388 -9.3178,-5.0852 -3.6379,-1.18566 -5.03409,-2.36056 -4.49002,-3.77838 0.89745,-2.33869 -3.26245,-2.80747 -6.53431,-0.73634 -1.35269,0.85627 -3.31003,0.32248 -5.93562,-1.6187 -4.03708,-2.98474 -7.04615,-2.51671 -7.04615,1.09598 0,1.27771 1.445,2.05855 3.80953,2.05855 5.11085,0 3.40134,1.45024 -2.58462,2.19261 -2.63798,0.32716 -6.08206,1.23597 -7.65348,2.01958 -7.23352,3.60707 -15.6235,5.62019 -17.3727,4.16848 -1.26586,-1.05057 -2.67198,-0.86824 -4.80022,0.62245 -3.23167,2.26355 -4.53567,2.01477 -19.42334,-3.70568 -4.67803,-1.79749 -7.25016,-3.60944 -7.14286,-5.03183 0.10457,-1.38695 -1.47721,-2.57212 -4.20654,-3.15171 -3.83583,-0.81455 -18.67927,-7.98287 -20.62577,-9.96078 -0.39286,-0.39919 -3.60715,-1.75829 -7.14286,-3.02022 -6.1065,-2.17946 -6.82221,-2.14509 -14.28571,0.68594 -4.32143,1.63919 -9.50602,4.66169 -11.5213,6.71667 -2.0153,2.05497 -5.45766,4.18644 -7.64969,4.73661 -3.00371,0.75389 -3.81157,1.66544 -3.27941,3.7004 0.41668,1.59342 -0.16823,3.03561 -1.42712,3.51869 -1.17327,0.45022 -1.77316,1.75686 -1.3331,2.90365 1.02827,2.67963 -1.37404,4.16548 -4.50066,2.78368 -1.33737,-0.59105 -5.32444,-1.21447 -8.86015,-1.38538 -3.53572,-0.1709 -9.82622,-0.47164 -13.9789,-0.66829 -9.03661,-0.42795 -10.73638,0.74696 -6.11921,4.22969 3.21786,2.42724 3.26084,2.63742 0.69294,3.38886 -1.50573,0.44061 -6.59483,1.24683 -11.30912,1.7916 -11.20364,1.29464 -15,2.81345 -15,6.00105 0,1.43373 -0.75399,3.36077 -1.67553,4.28232 -1.88428,1.88427 0.48074,8.89589 3.00058,8.89589 0.7646,0 0.458,2.22174 -0.68366,4.95412 -2.86979,6.86837 -2.62366,8.97541 1.6404,14.04295 3.44384,4.09277 3.53356,4.5388 1.24897,6.20932 -1.63683,1.19688 -2.22612,3.03054 -1.75909,5.47367 0.38627,2.02061 0.13689,4.0233 -0.55419,4.4504 -0.6936,0.42867 -0.83174,7.76993 -0.30836,16.38733 l 0.94813,15.61075 -4.50005,0.90002 c -2.47503,0.49501 -4.50006,1.46251 -4.50006,2.15001 0,0.6875 -1.57519,1.25 -3.50044,1.25 -1.92524,0 -4.01453,0.80357 -4.64286,1.78572 -0.62832,0.98214 -2.42812,2.50813 -3.99955,3.39107 -1.90707,1.07153 -2.85294,3.0839 -2.84451,6.05177 0.0101,3.58019 -0.75884,4.71536 -3.94741,5.8269 -4.94363,1.72336 -6.69274,5.65149 -3.34957,7.52241 1.86168,1.04186 2.06204,1.82582 0.84226,3.29556 -2.08346,2.51042 -2.14464,8.93179 -0.13369,14.03217 0.87791,2.22665 1.23927,4.62599 0.80302,5.33186 -0.43626,0.70587 0.84486,3.69401 2.84692,6.64031 2.00207,2.94629 3.64012,6.19829 3.64012,7.22666 0,2.60853 8.6108,18.89557 9.98991,18.89557 0.62091,0 1.54604,1.66193 2.05586,3.69319 0.50981,2.03126 2.3734,5.08483 4.14131,6.78571 3.93601,3.7868 10.23132,18.8849 12.33587,29.58529 1.38191,7.02614 2.23148,8.35803 7.51775,11.78571 3.27788,2.12542 6.79539,3.86439 7.81668,3.86439 1.0213,0 1.85691,0.65701 1.85691,1.46003 0,2.3537 13.08215,9.97141 17.0654,9.93717 2.00688,-0.0173 6.44354,-1.29953 9.85922,-2.8495 3.5647,-1.61757 7.61375,-2.46589 9.50463,-1.9913 2.24037,0.56228 3.7285,0.0509 4.65159,-1.5986 1.11321,-1.9892 1.90886,-2.13024 4.42396,-0.7842 1.68664,0.90267 3.06662,2.58917 3.06662,3.74778 0,1.15862 1.20602,3.1392 2.68003,4.4013 1.47403,1.26209 2.39095,3.40019 2.03762,4.75133 -0.35333,1.35115 0.99415,4.40159 2.99441,6.77876 2.00027,2.37717 3.24682,4.71217 2.7701,5.18887 -0.4767,0.47672 -0.0407,2.86074 0.9687,5.29786 1.00949,2.43711 1.7831,6.27144 1.71914,8.52073 -0.19251,6.77085 5.32226,10.93117 16.00668,12.07537 7.33878,0.78593 9.25385,1.51416 9.83601,3.74034 0.93299,3.56774 5.27303,2.11073 5.27303,-1.77024 l 0,0 z"
       id="path4524"
       inkscape:connector-curvature="0"
       transform="matrix(1.2199051,0,0,1.2736267,55.721358,-223.9153)" />
    <path
       inkscape:connector-curvature="0"
       id="path4534"
       d="m 101.90818,866.73628 c -2.57187,-1.83103 -7.32726,-3.77706 -10.56753,-4.3245 -3.24025,-0.54743 -9.11725,-2.89739 -13.05998,-5.2221 -3.94275,-2.32472 -16.77297,-8.06144 -28.51165,-12.74827 -23.47284,-9.37187 -36.03163,-15.33202 -34.83275,-16.53089 0.4284,-0.4284 3.54589,0.1572 6.92776,1.30133 5.91126,1.99987 9.72028,1.95107 9.72028,-0.12451 0,-1.17195 -6.57501,-4.47825 -16.42857,-8.26126 -5.17833,-1.98809 -7.26659,-3.60099 -7.59274,-5.86437 -0.33757,-2.34262 0.4649,-3.35166 3.21428,-4.0417 4.97087,-1.24762 4.63028,-4.34527 -0.59263,-5.38985 -3.07932,-0.61587 -4.02301,-1.46061 -3.41161,-3.05391 1.10905,-2.89013 -1.93744,-6.45187 -5.51852,-6.45187 -2.43317,0 -2.66646,-0.55932 -1.63858,-3.92857 1.69057,-5.54152 1.26403,-17.59807 -0.66477,-18.79013 -1.75202,-1.08282 -0.81566,-5.387 3.20561,-14.73542 2.79361,-6.4944 2.9365,-12.01894 0.35037,-13.54632 -1.06387,-0.62833 -2.68082,-2.5649 -3.59323,-4.3035 -0.91481,-1.7432 -2.52318,-2.82945 -3.58574,-2.4217 -1.25659,0.4822 -2.2178,-0.71543 -2.76331,-3.44296 -1.04984,-5.24922 -22.56124,-27.40283 -26.60843,-27.40283 -0.72624,0 -2.64279,-1.8571 -4.25902,-4.12687 -1.61623,-2.26979 -4.6786,-4.56359 -6.80527,-5.09734 -4.76173,-1.19513 -13.87278,-8.9208 -11.46643,-9.72292 2.39892,-0.79964 -5.98952,-10.51146 -10.05569,-11.64211 -1.76786,-0.49157 -3.21429,-1.47846 -3.21429,-2.19307 0,-2.73309 -4.671,-5.78912 -8.84839,-5.78912 -3.71233,0 -4.0949,-0.31773 -2.58018,-2.14286 2.23433,-2.6922 0.26924,-5.37868 -5.76165,-7.87675 -5.49301,-2.27529 -5.34354,-3.71039 0.76165,-7.31253 5.40341,-3.18809 6.17413,-4.76876 2.93184,-6.01294 -2.64515,-1.01505 -7.09372,-9.44905 -5.11138,-9.69063 0.80589,-0.0982 2.26883,-0.27349 3.25097,-0.38947 1.18085,-0.13943 1.68376,-2.36069 1.48472,-6.55755 -0.32956,-6.94904 0.98058,-8.53283 7.08671,-8.56683 3.60753,-0.0201 3.92857,-0.47522 3.92857,-5.56954 0,-4.38243 0.6121,-5.70773 2.91418,-6.30974 2.24839,-0.58797 2.71951,-1.53772 2.06211,-4.15702 -0.57703,-2.29908 0.15646,-4.6771 2.27233,-7.36698 2.64087,-3.35732 2.98903,-5.11513 2.24965,-11.35807 -0.48112,-4.0623 -1.43591,-7.57306 -2.12175,-7.80167 -0.68583,-0.22862 -0.96432,-1.89429 -0.61885,-3.7015 0.44114,-2.30765 -0.63549,-4.47852 -3.61642,-7.29203 -3.65533,-3.45005 -4.14247,-4.76733 -3.50915,-9.48912 0.64458,-4.80568 0.18335,-5.96737 -3.73405,-9.40483 -4.90977,-4.30824 -5.60461,-6.1428 -2.32662,-6.1428 2.78524,0 2.72808,-3.56845 -0.1348,-8.41492 -2.11664,-3.58318 -2.08363,-4.2047 0.4669,-8.79184 3.20037,-5.75589 15.21712,-12.92607 19.85598,-11.8477 1.67487,0.38935 6.36611,-0.72069 10.42497,-2.46677 6.19615,-2.66551 7.90408,-2.89406 10.64899,-1.42503 2.82748,1.51322 4.02061,1.23977 8.82951,-2.02364 7.28315,-4.94248 7.76679,-5.90882 7.08215,-14.15035 -0.42877,-5.16126 0.38677,-9.43741 3.13319,-16.42857 4.87442,-12.40803 13.26453,-19.68819 13.26453,-11.50972 0,1.52506 0.9639,2.77283 2.142,2.77283 1.44891,0 2.16618,-1.5023 2.21671,-4.64286 0.0411,-2.55357 0.10296,-7.42019 0.13746,-10.8147 0.0528,-5.19389 0.43724,-6.00826 2.42615,-5.13946 1.29986,0.56782 4.3961,1.3196 6.88052,1.67061 3.67836,0.51971 4.97339,-0.0581 6.97423,-3.11179 1.35141,-2.0625 4.35939,-5.10455 6.68442,-6.76011 l 4.22731,-3.01012 5.52565,3.10559 5.52565,3.10559 2.91566,-2.91566 c 1.70299,-1.70298 2.91567,-4.79027 2.91567,-7.42279 0,-4.27594 0.134,-4.38585 2.61249,-2.14285 3.7442,3.38846 8.43887,2.91849 12.28323,-1.22964 3.31667,-3.57875 3.33411,-3.58094 4.13478,-0.51918 0.71484,2.73358 1.53429,2.99243 7.38539,2.33293 3.61973,-0.408 9.28194,-0.12654 12.58271,0.62545 11.70216,2.66604 39.99093,3.47181 40.7612,1.16104 0.26306,-0.7892 3.33776,-1.43491 6.83266,-1.43491 4.25693,0 6.61888,-0.68935 7.15578,-2.08847 0.44078,-1.14866 2.0912,-2.49784 3.66762,-2.99817 3.3452,-1.06173 6.5752,-4.1193 10.1122,-9.57234 1.39041,-2.14365 4.65818,-4.78757 7.26168,-5.87539 2.60352,-1.08781 7.84359,-4.35171 11.64462,-7.25309 4.13676,-3.15767 7.94611,-5.00455 9.48971,-4.60089 1.41833,0.3709 4.98869,0.13084 7.93413,-0.53347 3.48206,-0.78533 5.68037,-0.68193 6.28452,0.29559 0.56422,0.91295 2.2616,1.05819 4.32178,0.36979 6.75583,-2.25739 15.93722,0.60251 15.22384,4.74206 -0.27245,1.58107 0.98289,2.64253 3.88309,3.28334 8.22317,1.81693 15.00566,5.53758 16.64217,9.12935 0.90672,1.99001 2.74103,3.96494 4.07627,4.38873 4.38183,1.39073 18.9794,13.57248 21.02095,17.54208 1.09897,2.13684 3.213,5.17088 4.69785,6.74231 1.48485,1.57143 4.82247,5.29453 7.41696,8.27356 3.94977,4.53522 5.7631,5.49044 11.1458,5.87141 3.53571,0.25024 7.39286,0.79301 8.57143,1.20614 10.56076,3.70197 14.3371,3.9571 24.46747,1.65299 10.50606,-2.38955 22.67561,-2.13376 27.85774,0.58553 12.99015,6.8165 27.88832,13.38732 28.64277,12.63286 0.50959,-0.50959 2.09795,0.99975 3.5297,3.35407 1.43175,2.35432 3.2353,4.28058 4.00792,4.28058 0.7726,0 1.0347,0.96429 0.58244,2.14286 -0.61636,1.6062 0.23267,2.14286 3.39013,2.14286 3.66361,0 4.43139,0.73078 5.89293,5.609 0.92428,3.08496 3.6393,7.25723 6.03338,9.27172 2.39408,2.01448 3.94519,4.32234 3.44692,5.12858 -0.49829,0.80623 -1.5044,1.09602 -2.23583,0.64398 -1.894,-1.17056 -1.64921,1.31308 0.32389,3.28617 2.19715,2.19716 -0.90139,6.06055 -4.86073,6.06055 -2.36762,0 -2.55485,-0.36425 -1.09276,-2.12595 2.58533,-3.11514 -2.06069,-4.57485 -5.04916,-1.58638 -1.2537,1.25371 -3.79514,2.65988 -5.64763,3.12482 -3.64894,0.91583 -5.72532,4.25847 -3.49972,5.63397 0.75842,0.46873 2.56152,0.47691 4.00688,0.0182 1.44536,-0.45873 4.49317,0.13868 6.77293,1.32756 2.27976,1.1889 5.61406,2.16559 7.40956,2.17043 3.76484,0.0102 9.39065,3.2445 14.77287,8.4931 2.06343,2.01221 5.48284,4.84708 7.59869,6.2997 2.11584,1.45263 3.55944,3.39044 3.20801,4.30625 -0.35143,0.91582 1.63803,3.26302 4.42103,5.21602 2.783,1.95298 8.56028,6.92588 12.83841,11.05088 4.84232,4.66898 9.03282,7.5 11.10159,7.5 6.01436,0 10.8689,2.77426 12.52307,7.15666 1.03699,2.74729 2.64784,4.30423 4.51356,4.36247 2.70818,0.0846 2.68735,0.17646 -0.3132,1.38253 -2.54477,1.02287 -3.21429,2.4256 -3.21429,6.73444 0,2.99335 -1.00074,6.87122 -2.22386,8.61746 -1.22312,1.74626 -1.62815,3.17502 -0.90008,3.17502 1.89431,0 3.1423,13.23382 1.44231,15.29457 -1.71101,2.0741 -0.35215,4.70543 2.42996,4.70543 1.10456,0 2.77877,1.44642 3.72047,3.21428 0.9417,1.76786 2.73217,3.99742 3.97883,4.95457 1.49819,1.15026 1.66124,1.75569 0.48094,1.78572 -2.46385,0.0627 -2.2535,3.84595 0.26765,4.81341 1.16667,0.44769 2.24622,-0.16206 2.5,-1.41203 0.37784,-1.8611 1.0064,-1.7586 4.08062,0.66543 3.11408,2.45546 3.58428,3.85453 3.28658,9.77914 -0.19109,3.80258 -0.37995,7.96379 -0.4197,9.24715 -0.0397,1.28335 -1.3067,2.65618 -2.81543,3.05073 -2.29442,0.6 -2.6198,1.6369 -1.98916,6.33874 0.64986,4.84506 0.14086,6.29264 -3.68543,10.48193 -2.44167,2.67328 -4.43941,5.52911 -4.43941,6.34625 0,0.81716 -1.44643,2.12032 -3.21429,2.89592 -4.03786,1.77151 -5.26357,9.12093 -1.84063,11.03651 1.32087,0.73919 1.99553,2.33277 1.5639,3.69399 -0.46048,1.4522 0.94833,4.22043 3.58122,7.03683 2.38718,2.55357 3.79573,4.64285 3.13011,4.64285 -1.67223,0 -1.21256,5.58253 0.87259,10.59742 1.18741,2.8558 1.3064,5.39364 0.37777,8.05753 -0.89914,2.57925 -0.85082,4.39348 0.14351,5.38781 1.04647,1.04647 0.39703,2.80893 -2.15078,5.83683 -2.00746,2.38573 -4.06789,6.24066 -4.57873,8.56651 -0.85646,3.89945 -1.50569,4.28218 -8.33532,4.91379 -4.07357,0.37674 -9.01364,0.69457 -10.97792,0.70629 -4.0424,0.0241 -20.66162,3.74124 -26.28333,5.8786 -2.04417,0.7772 -3.71667,2.39328 -3.71667,3.5913 0,2.55022 1.64415,2.81975 3.83522,0.6287 0.85225,-0.85225 3.0701,-1.32028 4.92858,-1.04005 l 3.37905,0.5095 -3.57143,2.00517 c -1.96428,1.10282 -5.97638,1.86658 -8.91577,1.69719 -2.93938,-0.16937 -6.63581,0.38321 -8.21428,1.22799 -2.29492,1.2282 -2.86995,1.09652 -2.86995,-0.65718 0,-3.57665 -3.97078,-2.50338 -7.27553,1.96653 -3.47811,4.70439 -11.65718,7.07597 -14.95742,4.33702 -2.9779,-2.47145 -6.60073,-0.5151 -6.07278,3.27931 0.36855,2.64876 -0.142,3.1414 -2.86087,2.76097 -5.2523,-0.73491 -15.39345,11.42749 -10.9501,13.13256 2.94516,1.13017 2.64446,6.56457 -0.55861,10.09557 -1.47142,1.62207 -3.23927,4.71707 -3.92857,6.87779 -0.68929,2.16071 -1.89612,3.99197 -2.68183,4.06944 -3.4883,0.34399 -6.43033,3.07183 -6.45044,5.98081 -0.0129,1.8859 -0.44586,2.50279 -1.07143,1.52713 -1.71303,-2.67165 -35.26547,-2.40168 -44.67642,0.35947 -6.69783,1.96515 -48.0214,5.14092 -49.84028,3.8303 -0.3355,-0.24174 0.56628,-1.29965 2.00397,-2.35091 3.68431,-2.69404 1.60834,-5.45801 -2.83156,-3.76996 -8.69388,3.3054 -31.89044,5.8745 -64.16738,7.10673 -31.8485,1.21589 -42.91239,2.70582 -40.20408,5.41414 0.47535,0.47533 -2.83364,2.83396 -7.35328,5.2414 -4.51964,2.40743 -8.89644,5.75503 -9.72623,7.43909 -2.48499,5.0433 -5.21224,7.71576 -9.85486,9.65684 -2.4197,1.01169 -5.31164,3.54597 -6.42655,5.63176 -1.11492,2.08577 -2.8667,3.79233 -3.89286,3.79233 -1.31114,0 -1.61096,1.27394 -1.0086,4.28571 1.05307,5.26539 -1.07682,5.46109 -7.74756,0.7119 l 0,-10e-6 z m 38.24756,-93.8062 c 0,-1.53373 0.6247,-2.40252 1.38821,-1.93064 0.76353,0.47188 2.88509,-0.12286 4.71457,-1.32155 2.94665,-1.9307 3.67185,-1.93751 6.35286,-0.0597 3.49249,2.44623 7.54436,1.43141 7.54436,-1.88956 0,-1.77001 0.38096,-1.89477 1.71428,-0.56144 2.7715,2.7715 4.12066,1.97813 3.15806,-1.85714 -0.77027,-3.06905 -0.41238,-3.57143 2.54422,-3.57143 4.08127,0 6.86915,-2.43513 6.86915,-6 0,-1.41429 0.9869,-2.57143 2.19312,-2.57143 1.20621,0 3.78888,-1.04559 5.73927,-2.32353 2.77786,-1.82011 3.19333,-2.74864 1.91767,-4.28571 -1.29516,-1.56058 -0.9987,-1.96219 1.44843,-1.96219 1.6923,0 3.41967,-0.89324 3.83861,-1.98499 0.42202,-1.09975 1.92972,-1.67955 3.38076,-1.30008 1.44049,0.37668 4.23867,-0.37632 6.21819,-1.67334 2.56555,-1.68102 5.06888,-2.0825 8.71725,-1.39808 3.37742,0.63362 5.11813,0.42023 5.11813,-0.62738 0,-2.09784 12.91303,-2.05883 25.36606,0.0766 11.97454,2.05341 17.58634,0.96093 17.1132,-3.33154 -0.25274,-2.29293 1.12877,-3.79737 5.55514,-6.04942 7.42813,-3.7793 9.71886,-7.04481 7.65156,-10.90758 -0.8473,-1.58322 -1.10193,-5.0845 -0.57429,-7.89706 0.58356,-3.11063 0.0956,-7.90766 -1.26968,-12.47999 -2.97879,-9.97644 -3.9297,-23.85562 -1.63445,-23.85562 0.95059,0 2.55945,-1.00143 3.57525,-2.2254 1.0158,-1.22396 3.98737,-3.11973 6.60348,-4.21282 2.61613,-1.09308 4.75659,-2.66308 4.75659,-3.48888 0,-0.82582 0.95884,-1.50148 2.13076,-1.50148 1.17191,0 2.90554,-1.24064 3.8525,-2.75697 1.31344,-2.10315 2.33268,-2.43003 4.29782,-1.37831 1.41683,0.75827 2.63156,1.19533 2.69938,0.97126 0.0678,-0.22408 0.31071,-3.5352 0.53974,-7.35808 0.23016,-3.84157 1.29327,-7.56454 2.37668,-8.32304 1.51819,-1.06288 1.55755,-1.53578 0.17455,-2.09694 -2.13719,-0.86719 -2.41417,-11.35803 -0.33385,-12.64374 2.01365,-1.2445 0.31796,-3.55716 -2.60761,-3.5564 -2.01094,5.1e-4 -2.41569,-1.49545 -2.41569,-8.92858 0,-5.58168 0.66946,-9.35748 1.78572,-10.07161 0.98214,-0.62833 1.78571,-2.00176 1.78571,-3.05209 0,-1.1681 2.49633,-2.28401 6.42857,-2.87368 3.53572,-0.53022 6.42858,-1.53494 6.42858,-2.23273 0,-0.69779 3.51798,-1.01253 7.81774,-0.69941 8.77424,0.63894 11.42363,-1.27409 6.8705,-4.96099 -2.56329,-2.07563 -2.7036,-2.85497 -1.18004,-6.55436 1.50094,-3.64451 1.33642,-4.75913 -1.24668,-8.44577 -1.6367,-2.33594 -3.77938,-5.114 -4.76152,-6.17347 -2.11393,-2.28037 -2.3273,-5.5046 -0.44142,-6.67014 0.77657,-0.47995 0.2148,-3.35363 -1.33017,-6.80445 -2.62527,-5.86374 -2.6238,-6.00912 0.0804,-7.90325 2.53956,-1.77876 2.5886,-2.25126 0.62743,-6.04375 -1.44626,-2.79675 -1.73215,-5.17322 -0.89282,-7.42167 0.67907,-1.81915 0.69806,-4.73223 0.0421,-6.47351 -0.83859,-2.22639 -0.52968,-3.82879 1.04091,-5.39937 1.40161,-1.40162 1.91743,-3.49231 1.385,-5.61366 -0.57656,-2.29724 -0.14907,-3.64861 1.33427,-4.21782 1.93543,-0.7427 1.94479,-1.29752 0.0827,-4.89849 -1.155,-2.23351 -4.07033,-6.17019 -6.47853,-8.74818 -2.4082,-2.57798 -4.37855,-5.26211 -4.37855,-5.96473 0,-0.70262 -3.05357,-1.32332 -6.78571,-1.37933 -3.73214,-0.056 -9.35714,-0.47537 -12.5,-0.93192 -3.14286,-0.45655 -7,-0.72777 -8.57143,-0.60271 -16.45577,1.30961 -26.42857,-0.55634 -26.42857,-4.9449 0,-1.09453 -1.23639,-1.99006 -2.74753,-1.99006 -1.51116,0 -4.56473,-1.51402 -6.78571,-3.36448 -2.221,-1.85046 -6.41402,-4.1388 -9.3178,-5.0852 -3.6379,-1.18566 -5.03409,-2.36056 -4.49002,-3.77838 0.89745,-2.33869 -3.26245,-2.80747 -6.53431,-0.73634 -1.35269,0.85627 -3.31003,0.32248 -5.93562,-1.6187 -4.03708,-2.98474 -7.04615,-2.51671 -7.04615,1.09598 0,1.27771 1.445,2.05855 3.80953,2.05855 5.11085,0 3.40134,1.45024 -2.58462,2.19261 -2.63798,0.32716 -6.08206,1.23597 -7.65348,2.01958 -7.23352,3.60707 -15.6235,5.62019 -17.3727,4.16848 -1.26586,-1.05057 -2.67198,-0.86824 -4.80022,0.62245 -3.23167,2.26355 -4.53567,2.01477 -19.42334,-3.70568 -4.67803,-1.79749 -7.25016,-3.60944 -7.14286,-5.03183 0.10457,-1.38695 -1.47721,-2.57212 -4.20654,-3.15171 -3.83583,-0.81455 -18.67927,-7.98287 -20.62577,-9.96078 -0.39286,-0.39919 -3.60715,-1.75829 -7.14286,-3.02022 -6.1065,-2.17946 -6.82221,-2.14509 -14.28571,0.68594 -4.32143,1.63919 -9.50602,4.66169 -11.5213,6.71667 -2.0153,2.05497 -5.45766,4.18644 -7.64969,4.73661 -3.00371,0.75389 -3.81157,1.66544 -3.27941,3.7004 0.41668,1.59342 -0.16823,3.03561 -1.42712,3.51869 -1.17327,0.45022 -1.77316,1.75686 -1.3331,2.90365 1.02827,2.67963 -1.37404,4.16548 -4.50066,2.78368 -1.33737,-0.59105 -5.32444,-1.21447 -8.86015,-1.38538 -3.53572,-0.1709 -9.82622,-0.47164 -13.9789,-0.66829 -9.03661,-0.42795 -10.73638,0.74696 -6.11921,4.22969 3.21786,2.42724 3.26084,2.63742 0.69294,3.38886 -1.50573,0.44061 -6.59483,1.24683 -11.30912,1.7916 -11.20364,1.29464 -15,2.81345 -15,6.00105 0,1.43373 -0.75399,3.36077 -1.67553,4.28232 -1.88428,1.88427 0.48074,8.89589 3.00058,8.89589 0.7646,0 0.458,2.22174 -0.68366,4.95412 -2.86979,6.86837 -2.62366,8.97541 1.6404,14.04295 3.44384,4.09277 3.53356,4.5388 1.24897,6.20932 -1.63683,1.19688 -2.22612,3.03054 -1.75909,5.47367 0.38627,2.02061 0.13689,4.0233 -0.55419,4.4504 -0.6936,0.42867 -0.83174,7.76993 -0.30836,16.38733 l 0.94813,15.61075 -4.50005,0.90002 c -2.47503,0.49501 -4.50006,1.46251 -4.50006,2.15001 0,0.6875 -1.57519,1.25 -3.50044,1.25 -1.92524,0 -4.01453,0.80357 -4.64286,1.78572 -0.62832,0.98214 -2.42812,2.50813 -3.99955,3.39107 -1.90707,1.07153 -2.85294,3.0839 -2.84451,6.05177 0.0101,3.58019 -0.75884,4.71536 -3.94741,5.8269 -4.94363,1.72336 -6.69274,5.65149 -3.34957,7.52241 1.86168,1.04186 2.06204,1.82582 0.84226,3.29556 -2.08346,2.51042 -2.14464,8.93179 -0.13369,14.03217 0.87791,2.22665 1.23927,4.62599 0.80302,5.33186 -0.43626,0.70587 0.84486,3.69401 2.84692,6.64031 2.00207,2.94629 3.64012,6.19829 3.64012,7.22666 0,2.60853 8.6108,18.89557 9.98991,18.89557 0.62091,0 1.54604,1.66193 2.05586,3.69319 0.50981,2.03126 2.3734,5.08483 4.14131,6.78571 3.93601,3.7868 10.23132,18.8849 12.33587,29.58529 1.38191,7.02614 2.23148,8.35803 7.51775,11.78571 3.27788,2.12542 6.79539,3.86439 7.81668,3.86439 1.0213,0 1.85691,0.65701 1.85691,1.46003 0,2.3537 13.08215,9.97141 17.0654,9.93717 2.00688,-0.0173 6.44354,-1.29953 9.85922,-2.8495 3.5647,-1.61757 7.61375,-2.46589 9.50463,-1.9913 2.24037,0.56228 3.7285,0.0509 4.65159,-1.5986 1.11321,-1.9892 1.90886,-2.13024 4.42396,-0.7842 1.68664,0.90267 3.06662,2.58917 3.06662,3.74778 0,1.15862 1.20602,3.1392 2.68003,4.4013 1.47403,1.26209 2.39095,3.40019 2.03762,4.75133 -0.35333,1.35115 0.99415,4.40159 2.99441,6.77876 2.00027,2.37717 3.24682,4.71217 2.7701,5.18887 -0.4767,0.47672 -0.0407,2.86074 0.9687,5.29786 1.00949,2.43711 1.7831,6.27144 1.71914,8.52073 -0.19251,6.77085 5.32226,10.93117 16.00668,12.07537 7.33878,0.78593 9.25385,1.51416 9.83601,3.74034 0.93299,3.56774 5.27303,2.11073 5.27303,-1.77024 l 0,0 z"
       style="fill:url(#radialGradient4542-2);fill-opacity:1;stroke:none;filter:url(#filter4466-9)"
       transform="matrix(1.2199051,0,0,1.2736267,55.721358,-223.9153)" />
  </g>
</svg>
