<?xml version="1.0" encoding="UTF-8" standalone="no"?>
<!-- Created with Inkscape (http://www.inkscape.org/) -->

<svg
   xmlns:dc="http://purl.org/dc/elements/1.1/"
   xmlns:cc="http://creativecommons.org/ns#"
   xmlns:rdf="http://www.w3.org/1999/02/22-rdf-syntax-ns#"
   xmlns:svg="http://www.w3.org/2000/svg"
   xmlns="http://www.w3.org/2000/svg"
   xmlns:xlink="http://www.w3.org/1999/xlink"
   xmlns:sodipodi="http://sodipodi.sourceforge.net/DTD/sodipodi-0.dtd"
   xmlns:inkscape="http://www.inkscape.org/namespaces/inkscape"
   width="744.09448819"
   height="1052.3622047"
   id="svg2"
   version="1.1"
   inkscape:version="0.48.3.1 r9886"
   sodipodi:docname="b3ast.svg">
  <defs
     id="defs4">
    <linearGradient
       inkscape:collect="always"
       id="linearGradient3842">
      <stop
         style="stop-color:#ffff00;stop-opacity:1;"
         offset="0"
         id="stop3844" />
      <stop
         style="stop-color:#ffff00;stop-opacity:0;"
         offset="1"
         id="stop3846" />
    </linearGradient>
    <linearGradient
       inkscape:collect="always"
       id="linearGradient3824">
      <stop
         style="stop-color:#d45500;stop-opacity:1;"
         offset="0"
         id="stop3826" />
      <stop
         style="stop-color:#d45500;stop-opacity:0;"
         offset="1"
         id="stop3828" />
    </linearGradient>
    <linearGradient
       inkscape:collect="always"
       id="linearGradient3812">
      <stop
         style="stop-color:#ffff00;stop-opacity:1;"
         offset="0"
         id="stop3814" />
      <stop
         style="stop-color:#ffff00;stop-opacity:0;"
         offset="1"
         id="stop3816" />
    </linearGradient>
    <linearGradient
       inkscape:collect="always"
       id="linearGradient3804">
      <stop
         style="stop-color:#000000;stop-opacity:1;"
         offset="0"
         id="stop3806" />
      <stop
         style="stop-color:#000000;stop-opacity:0;"
         offset="1"
         id="stop3808" />
    </linearGradient>
    <radialGradient
       inkscape:collect="always"
       xlink:href="#linearGradient3804"
       id="radialGradient3810"
       cx="328.77509"
       cy="598.11484"
       fx="328.77509"
       fy="598.11484"
       r="168.93309"
       gradientTransform="matrix(1,0,0,0.96283553,0,22.228619)"
       gradientUnits="userSpaceOnUse" />
    <radialGradient
       inkscape:collect="always"
       xlink:href="#linearGradient3812"
       id="radialGradient3818"
       cx="328.77509"
       cy="598.11484"
       fx="328.77509"
       fy="598.11484"
       r="169.43309"
       gradientTransform="matrix(1,0,0,0.96294521,0,22.163021)"
       gradientUnits="userSpaceOnUse" />
    <radialGradient
       inkscape:collect="always"
       xlink:href="#linearGradient3824"
       id="radialGradient3830"
       cx="328.77509"
       cy="598.11484"
       fx="328.77509"
       fy="598.11484"
       r="169.43309"
       gradientTransform="matrix(1,0,0,0.96294521,0,22.163021)"
       gradientUnits="userSpaceOnUse" />
    <radialGradient
       inkscape:collect="always"
       xlink:href="#linearGradient3842"
       id="radialGradient3848"
       cx="328.77509"
       cy="598.11511"
       fx="328.77509"
       fy="598.11511"
       r="169.43309"
       gradientTransform="matrix(2.0849964,-0.01058258,0.00912467,1.7977604,-362.1774,-473.67345)"
       gradientUnits="userSpaceOnUse" />
    <radialGradient
       inkscape:collect="always"
       xlink:href="#linearGradient3804"
       id="radialGradient3889"
       gradientUnits="userSpaceOnUse"
       gradientTransform="matrix(2.0911674,-0.01061385,0.00915165,1.8030811,-364.22241,-476.84515)"
       cx="328.77509"
       cy="598.11487"
       fx="328.77509"
       fy="598.11487"
       r="168.93309" />
    <filter
       id="filter3891"
       inkscape:menu="Textures"
       inkscape:label="Watercolor"
       inkscape:menu-tooltip="Cloudy watercolor effect"
       height="2"
       y="-0.5"
       width="1.6"
       x="-0.3"
       color-interpolation-filters="sRGB">
      <feGaussianBlur
         id="feGaussianBlur3893"
         stdDeviation="15"
         result="result8" />
      <feTurbulence
         id="feTurbulence3895"
         seed="27"
         result="result7"
         type="fractalNoise"
         numOctaves="5"
         baseFrequency="0.025" />
      <feComposite
         id="feComposite3897"
         in2="result8"
         result="result6"
         operator="over"
         in="result7" />
      <feColorMatrix
         id="feColorMatrix3899"
         result="result9"
         values="1 0 0 0 0 0 1 0 0 0 0 0 1 0 0 0 0 0 6 -4 " />
      <feDisplacementMap
         id="feDisplacementMap3901"
         in2="result9"
         in="result7"
         xChannelSelector="A"
         yChannelSelector="A"
         scale="50"
         result="result4" />
      <feComposite
         id="feComposite3903"
         in2="result4"
         result="result2"
         operator="in"
         in="result8" />
      <feComposite
         id="feComposite3905"
         in2="result9"
         result="fbSourceGraphic"
         in="result2"
         operator="in" />
      <feComposite
         id="feComposite3907"
         in2="fbSourceGraphic"
         operator="arithmetic"
         k2="1"
         k1="0.5"
         in="fbSourceGraphic"
         result="result91" />
      <feBlend
         id="feBlend3909"
         in2="result91"
         in="fbSourceGraphic"
         mode="multiply" />
    </filter>
  </defs>
  <sodipodi:namedview
     id="base"
     pagecolor="#ffffff"
     bordercolor="#666666"
     borderopacity="1.0"
     inkscape:pageopacity="0.0"
     inkscape:pageshadow="2"
     inkscape:zoom="0.49497475"
     inkscape:cx="-32.671073"
     inkscape:cy="617.68553"
     inkscape:document-units="px"
     inkscape:current-layer="layer1"
     showgrid="false"
     inkscape:window-width="1855"
     inkscape:window-height="1056"
     inkscape:window-x="65"
     inkscape:window-y="24"
     inkscape:window-maximized="1" />
  <metadata
     id="metadata7">
    <rdf:RDF>
      <cc:Work
         rdf:about="">
        <dc:format>image/svg+xml</dc:format>
        <dc:type
           rdf:resource="http://purl.org/dc/dcmitype/StillImage" />
      </cc:Work>
    </rdf:RDF>
  </metadata>
  <g
     inkscape:label="Layer 1"
     inkscape:groupmode="layer"
     id="layer1">
    <path
       style="fill:#ff6600;stroke:#d45500;stroke-width:3;stroke-linecap:round;stroke-linejoin:miter;stroke-miterlimit:4;stroke-dasharray:none;stroke-dashoffset:0"
       id="path2991"
       d="m 176.535,616.5543 c 2.84616,-5.59324 4.73771,-11.7858 8.53847,-16.7797 1.79583,-2.35958 4.73573,-4.06067 7.66638,-4.51224 1.95256,-0.30085 -2.9558,2.62431 -4.36957,4.00426 -2.49243,2.43278 -5.05714,4.8053 -7.34574,7.43074 -0.68129,0.78156 -2.4291,3.19183 -1.5047,2.72229 2.52123,-1.28063 4.40748,-3.54407 6.61122,-5.3161 1.91316,-3.80962 4.38451,-7.38689 5.73948,-11.42884 6.15213,-18.35221 -0.64458,-4.74594 -0.86082,-4.5935 -2.04888,1.44432 -4.72855,1.87402 -6.69012,3.43487 -0.60815,0.48392 -1.21977,2.54934 -0.49102,2.27927 1.76684,-0.65478 2.85735,-2.45711 4.28602,-3.68567 2.85704,-1.34694 6.24962,-1.89898 8.57113,-4.04084 3.21265,-2.96402 4.43707,-10.3123 -1.32663,-3.51419 -0.33989,0.40089 -0.77824,1.37416 -0.28333,1.55108 1.72235,0.61574 3.65251,0.20418 5.47877,0.30626 2.37766,-2.23439 4.43771,-4.86436 7.13299,-6.70318 2.33268,-1.59144 5.65915,-1.53474 7.74,-3.44371 0.81174,-0.74468 0.60937,-2.86644 -0.41205,-3.27894 -2.26299,-0.91392 -4.89772,0.45424 -7.32003,0.15632 -4.8721,-0.59923 -5.4313,-1.4342 -8.7278,-3.7575 0.96822,-1.81192 2.10628,-3.54287 2.90466,-5.43578 0.60906,-1.44406 1.84496,-3.05267 1.29444,-4.52004 -0.95116,-2.53526 -9.78564,-8.50661 -11.3179,-9.64783 -4.41004,-3.28457 -3.79828,-4.77797 -4.27055,-1.86018 0.6496,-0.43907 1.51518,-0.66397 1.94882,-1.31721 0.16511,-0.24873 -0.72799,-0.17419 -0.76191,-0.4708 -1.84638,-16.14772 3.70035,7.80573 -2.98812,-13.70176 -0.69254,-2.22694 -0.36408,-4.82422 -1.57636,-6.81652 -0.74934,-1.23149 -2.54201,-1.36036 -3.81301,-2.04054 1.67951,0.39308 3.33069,0.93731 5.03854,1.17922 1.88785,0.2674 -1.82601,-2.13629 -2.07391,-3.06653 -0.50838,-1.90761 0.59332,-3.98666 0.19123,-5.91946 -2.42849,-11.67364 -3.0355,-1.29151 -2.31738,-8.28988 1.81678,-5.35462 3.95114,2.25929 5.14447,0.9848 0.52203,-0.55753 -0.9027,-1.24987 -1.19256,-1.9565 -0.76966,-1.87632 -1.90101,-3.72916 -1.9711,-5.75599 -0.12982,-3.754 1.77099,-5.39332 3.78489,-7.85894 0.96008,1.13911 1.59253,2.66826 2.88024,3.41732 2.88821,1.68007 7.75595,-0.13846 9.16873,-2.89616 4.46812,-8.72163 -4.75194,-2.12242 3.98031,-7.06288 1.73196,1.53032 3.46392,3.06065 5.19588,4.59097 0.34724,1.3933 0.0925,3.10247 1.04173,4.17991 0.60252,0.68392 1.93335,0.5426 2.73243,0.10413 1.57631,-0.86494 2.54346,-2.54525 3.88931,-3.73756 2.39138,-2.11856 4.92653,-4.06961 7.35204,-6.14901 0.94185,1.18013 2.18595,2.17266 2.82556,3.54039 0.59637,1.27528 0.20883,2.86203 0.77188,4.15236 0.19754,0.45269 1.20496,1.13695 1.32739,0.65846 0.30729,-1.20095 -0.90238,-2.48733 -0.55495,-3.67729 3.66255,-12.54441 5.06488,0.68906 1.62638,-13.59927 -0.66142,-3.02815 2.01409,-4.21841 2.72561,-6.4879 0.44324,-1.41377 0.30926,-2.95287 0.62174,-4.40117 0.40409,-1.87288 1.44253,-3.62806 1.52363,-5.54232 0.0431,-1.01645 -0.77961,-1.87944 -1.16942,-2.81916 3.36145,-0.50865 2.51756,3.70951 4.46444,4.57615 0.51464,0.2291 0.27356,-1.15196 0.67119,-1.55099 1.51887,-1.52424 3.31621,-2.74296 4.97431,-4.11444 1.1596,-2.34872 1.78257,-5.05019 3.47881,-7.04617 1.34321,-1.58058 3.52778,-2.18278 5.29167,-3.27417 0.87205,0.94763 1.38739,2.45737 2.61615,2.8429 4.8582,1.52428 6.0211,-5.03395 11.15796,-8.84916 0.75905,-0.56377 1.82217,-0.50562 2.73326,-0.75843 8.29802,9.59926 0.33041,-1.66592 2.62437,8.26438 0.12943,0.56029 1.25878,-0.058 1.65983,-0.47015 6.15015,-1.90143 2.73976,-8.51754 5.41572,-11.99315 0.786,-1.02089 2.57325,-0.13566 3.85987,-0.2035 5.61906,-3.09608 6.40308,6.83389 10.52795,6.55639 1.41162,-0.095 0.79229,-2.87115 1.83525,-3.82714 0.94374,-0.86505 3.36099,0.0481 3.64857,-1.1994 1.24067,-5.38187 -5.97278,-4.09513 0.0619,-4.55035 5.78301,1.29314 9.22193,7.37655 14.74546,9.01096 2.86942,0.84906 5.99505,-0.63996 8.97119,-0.32844 1.01098,0.10582 1.61719,1.46172 2.63046,1.54282 7.59905,0.60817 0.0938,-2.14789 3.60898,-0.73434 0.7588,0.0185 1.5881,-0.26434 2.27641,0.0556 0.90956,0.42277 1.22719,1.87738 2.21798,2.03343 1.29065,0.20327 2.49461,-0.78473 3.76472,-1.09119 0.5723,-0.13808 1.1952,-0.042 1.74987,-0.23937 3.07444,-1.0938 -1.96358,-1.91546 4.46492,0.47478 0.73048,0.8123 1.11754,2.23643 2.19143,2.43692 2.08998,0.3902 4.19727,-0.93102 6.32172,-0.84755 2.15587,0.0847 4.21246,0.93833 6.33138,1.3447 0.94005,0.18029 3.36554,-0.38645 2.84146,0.41451 -2.21718,3.38859 -11.79617,-3.39678 2.55957,4.15635 2.11201,2.7632 3.63716,6.09599 6.33603,8.28959 2.40184,1.95218 5.5823,2.69929 8.48977,3.76061 0.36103,0.13179 1.34386,0.0654 1.1254,-0.25076 -0.36838,-0.53319 -4.64581,-1.26327 -2.33414,-0.13845 1.33599,0.65007 2.84257,0.86583 4.26386,1.29874 2.88194,6.27135 1.09164,5.74761 7.4302,7.77267 0.58106,0.18564 1.23526,0.20485 1.82885,0.0644 1.40246,-0.33195 2.66188,-1.76967 4.06951,-1.46042 3.00784,0.66081 7.53113,6.74071 9.08799,8.55535 2.77426,7.63242 0.0501,5.23478 8.52366,6.39891 1.4389,0.19768 3.34646,1.70876 4.31231,0.62404 1.16995,-1.31394 -1.657,-4.33365 -0.17083,-5.27522 7.23439,2.2455 4.17848,3.04989 9.38738,-1.32204 10.31694,8.00751 -2.56362,-1.55814 6.94089,4.31967 0.67997,0.42052 1.1212,2.10123 1.76371,1.62545 1.79072,-1.32605 -0.2571,-5.02126 0.0774,-6.41958 0.23199,-0.96991 1.19074,-1.60008 1.7861,-2.40012 7.7114,-0.52674 4.57735,-1.18152 11.7247,1.78483 1.53022,0.63508 2.91385,1.70533 4.53981,2.02342 0.36553,0.0715 0.53241,-0.78869 0.29686,-1.07721 -0.20033,-0.24539 -0.35679,0.52352 -0.53519,0.78529 -0.14118,-0.52467 -0.28237,-1.04935 -0.42355,-1.57402 6.69756,-4.01187 2.13161,-2.61429 12.28706,0.009 2.03505,0.52566 4.2475,0.45565 6.16801,1.30969 0.0718,0.0319 4.49886,3.92351 1.70348,4.52292 1.29119,-0.45098 3.61368,-1.39996 4.84947,-0.90013 0.88652,0.35856 0.90648,1.75966 1.67441,2.32953 8.66777,6.43226 -4.46366,-6.19727 6.2218,2.4143 1.56753,1.2633 2.65164,3.03005 3.97746,4.54507 -0.24979,6.25854 7.93061,5.14328 9.86837,9.20215 0.44307,0.92806 -0.6735,2.78498 -1.68248,2.58605 -1.24715,-0.24588 -1.40216,-2.13422 -1.91817,-3.29593 -0.2196,-0.4944 -0.57808,-2.03815 -0.25755,-1.60236 0.56949,0.77429 0.70219,1.7895 1.05329,2.68425 0.39698,2.10312 -4.1e-4,4.53133 1.19094,6.30937 1.32564,1.97847 4.25632,2.34962 5.81648,4.14894 3.42791,3.95341 -1.71303,7.64249 -2.16211,11.4619 -0.30219,2.57012 0.14317,5.17368 0.21475,7.76051 4.40439,11.11481 3.65412,5.59348 2.97005,16.3648 -0.0695,1.09428 0.715,2.68587 -0.20457,3.2831 -1.55421,1.0094 -5.51256,-4.75172 -3.79029,-4.06741 2.15339,0.8556 3.53333,2.99869 5.3,4.49804 -0.12764,2.22803 -0.25527,4.45607 -0.38291,6.68411 -0.25902,1.86294 -0.64761,3.71242 -0.77706,5.58883 -0.0561,0.8132 1.0292,2.31153 0.22349,2.43517 -1.55119,0.23804 -2.78419,-1.6901 -4.34954,-1.80201 -0.50998,-0.0364 0.5942,1.11644 0.26811,1.51023 -0.96947,1.17073 -2.47467,1.76575 -3.71201,2.64862 0.11452,2.45704 -2.75879,15.6303 -7.88478,13.38056 -5.80482,-2.54766 -3.82212,-6.62262 -6.30497,0.72483 -2.30386,1.9016 -4.80268,3.58904 -6.91158,5.70479 -1.45825,1.46299 -2.53416,3.26495 -3.71705,4.95836 -0.1361,0.19485 -0.0691,0.86165 -0.2202,0.67817 -0.8797,-1.06844 -1.98863,-2.17873 -2.14729,-3.55359 -0.0759,-0.65797 0.95188,-1.30543 1.60148,-1.17619 0.49534,0.0985 -0.44084,0.90883 -0.66126,1.36325 -2.2054,2.9637 -5.14111,6.56934 -6.47808,10.00839 -0.41769,1.07441 0.1456,2.3657 -0.24745,3.44936 -0.25681,0.70803 -2.07447,1.03417 -1.58702,1.60832 5.00702,5.89773 5.9773,-4.96928 2.62997,7.14517 -1.01211,1.92552 -4.71204,8.14662 -4.55996,10.80436 0.0521,0.91091 1.50412,1.0904 2.03027,1.83581 0.18351,0.25999 -0.0911,0.63579 -0.062,0.95268 0.0978,1.06407 0.21235,2.13142 0.44149,3.17512 0.38425,1.75013 0.93023,3.4608 1.39535,5.1912 -0.29584,2.80166 -0.38847,5.63229 -0.88751,8.40497 -0.33084,1.83821 -0.98811,3.60489 -1.59214,5.37226 -0.18808,0.55029 -0.8905,0.99121 -0.7777,1.56172 0.16349,0.82688 0.96081,1.38703 1.49037,2.0428 1.09944,1.36145 2.84417,2.34398 3.39382,4.00538 0.48466,1.46497 -0.36531,3.06443 -0.54797,4.59665 -2.56273,4.17667 0.13518,0.20921 1.30481,5.23969 1.86857,8.03664 -5.17708,1.14747 2.21976,13.13164 2.05688,3.33251 5.52825,5.54833 8.29238,8.3225 5.47741,7.21178 3.27118,2.8906 5.48325,10.65472 0.11899,0.41764 0.7804,0.93673 0.45264,1.22163 -0.80141,0.69661 -2.06201,0.55476 -3.02094,1.01082 -1.52669,0.72608 -2.51846,3.47437 -3.05363,4.44014 1.01392,2.05787 1.93787,5.93107 5.14312,6.14584 0.74626,0.05 2.44264,-1.5242 1.6968,-1.46819 -1.8806,0.14121 -3.49868,1.84554 -5.38189,1.7449 -20.1807,-1.07845 9.20562,-4.27907 -9.88905,-1.61356 -5.61216,0.64569 -1.15416,11.13098 -9.66502,7.69946 -1.35597,-0.54672 0.40591,-3.91178 -1.01213,-4.26774 -1.4694,-0.36886 -2.14858,2.13642 -3.22287,3.20464 -12.264,12.30991 4.26747,-3.26342 -9.83201,6.75914 -0.99683,0.70859 -1.07335,2.37115 -2.1295,2.98786 -0.71773,0.41909 -1.64476,-0.32772 -2.47539,-0.29898 -0.44252,0.0153 -3.95965,1.10676 -4.06323,1.13784 -1.51226,0.47586 -3.02452,0.95172 -4.53678,1.42758 -2.61599,0.0476 -5.29159,-0.41438 -7.84799,0.14288 -2.62989,0.57329 -4.73486,3.00002 -7.42012,3.18537 -1.95443,0.13491 -3.53927,-2.88609 -5.40858,-2.29985 -0.0595,0.0187 2.7051,6.08694 2.86186,6.43287 -14.226,1.25445 -1.99062,0.98298 -16.61592,-1.1294 -2.73947,-0.39568 -5.52673,-0.33159 -8.28325,-0.5823 -0.90497,-0.0823 -2.46762,-1.29615 -2.69416,-0.41614 -0.35434,1.37644 4.52653,3.41858 5.02075,3.66427 -5.13133,3.14024 -8.01972,-3.07528 -12.23848,-3.28718 -1.29214,-0.0649 -2.13121,1.48477 -3.0691,2.37593 -1.49938,1.42469 -3.12316,2.79557 -4.21939,4.54947 -1.00144,1.60224 -0.15334,4.73926 -1.95064,5.32218 -3.20169,1.0384 -6.66213,-0.96563 -9.9932,-1.44844 -2.18149,-0.60967 -15.0152,-4.48286 -18.56214,-4.58082 -0.60465,-0.0167 -1.42927,0.73497 -1.25222,1.31337 0.61532,2.01022 2.05298,3.68205 3.29948,5.37493 0.49988,0.67889 2.73503,1.63231 1.89315,1.6772 -1.33346,0.0711 -2.45368,-1.0546 -3.68052,-1.5819 -1.49912,-0.36784 -3.03284,-0.61579 -4.49735,-1.10352 -4.33718,-1.44441 -3.74449,-3.64901 -8.50705,1.71707 -0.0704,0.0793 -3.68576,6.36869 -2.99953,7.86073 0.20861,0.45357 0.48045,-0.8753 0.72068,-1.31295 0.48134,-0.20827 1.96015,-0.53157 1.44403,-0.62481 -3.2866,-0.5937 -2.54347,0.88003 -3.0691,3.18244 -0.26135,1.14479 -0.93685,2.24203 -0.86753,3.41423 0.0733,1.24006 1.51128,2.28141 1.27652,3.50125 -0.23471,1.21953 -1.65643,1.85084 -2.48465,2.77626 -9.18068,-3.64688 -20.94688,-6.63108 -30.83723,-4.33375 -2.55964,0.59455 -4.32539,3.10855 -6.8038,3.98191 -19.22907,6.7761 -1.93031,-1.52311 -7.65074,1.27797 -2.42049,-1.42545 2.93312,-3.79333 1.65334,-4.99042 -0.0578,-0.054 -7.77054,-1.15024 -8.64684,-1.29385 -8.80496,-1.443 -6.2029,-0.91118 -12.83654,-2.55568 0.13958,-0.9852 0.98704,-2.13881 0.41875,-2.9556 -0.66544,-0.95641 -2.33595,-0.50867 -3.29221,-1.17432 -2.03489,-1.41651 -3.92904,-3.08009 -5.53416,-4.96976 -0.5048,-0.59429 -4.40856,-6.48758 -3.92089,-7.95736 0.16933,-0.51033 0.82807,0.68611 1.2421,1.02916 -6.45284,0.96468 -0.64308,1.15456 -3.15422,-3.42195 -0.63878,-1.16417 -3.00158,-0.90743 -3.32405,-2.19558 -0.45369,-1.81228 0.93198,-3.61838 1.41693,-5.42255 0.32893,-1.22371 1.38174,-2.44496 1.02462,-3.66074 -0.23762,-0.80896 -1.57606,-0.59962 -2.36409,-0.89944 -1.12402,1.23677 -6.06685,-1.17464 -6.37345,-1.76062 -0.54036,-1.03275 1.42179,-2.33276 0.90512,-3.37757 -0.34347,-0.6946 -1.25117,0.92972 -1.94818,1.26825 -1.75346,0.85164 -3.58698,1.52747 -5.38047,2.2912 -1.03633,-1.22675 -1.60721,-3.11144 -3.109,-3.68024 -1.35059,-0.51153 -2.80162,0.75401 -4.23871,0.89733 -1.17474,0.11715 -2.37379,0.0644 -3.53961,-0.12164 -1.64522,-0.41023 -3.29043,-0.82047 -4.93565,-1.2307 -1.10466,-0.95829 -1.90114,-2.4974 -3.31397,-2.87487 -1.00497,-0.26849 -1.9142,0.81491 -2.8713,1.22236 -2.02359,-0.32456 -0.89257,2.82728 -2.10851,3.05223 -1.76304,0.32617 -3.43076,-1.23701 -5.22307,-1.28519 -3.97721,-0.1069 -6.77576,2.72054 -10.14635,-0.75225 -0.54903,-0.56568 -0.003,-1.57661 -0.004,-2.36492 -2.44107,0.0376 -0.61152,3.3977 -1.97641,3.94848 -1.24996,0.5044 -2.64545,-0.53611 -3.93804,-0.91825 -7.13344,-2.10893 -4.61613,-2.74399 -7.67337,-8.96576 -1.01525,0.052 0.7553,3.47739 0.45163,2.6384 -0.69783,-1.92801 -1.0006,-4.07258 -2.17332,-5.75452 -3.61542,-5.18531 -5.76089,-1.61863 -4.24766,-6.89491 -0.84748,-0.4863 -4.87705,-2.73804 -5.07069,-3.19305 -0.45555,-1.0705 0.78214,-2.25233 0.72401,-3.41427 -0.0752,-1.50355 -0.70582,-2.92771 -1.1138,-4.3768 -1.17741,-4.18206 -2.47703,-3.32243 -0.74487,-4.20021 0.0183,-0.0967 0.13621,-0.23485 0.0548,-0.29013 -2.36226,-1.60371 -3.9617,-0.87182 -3.961,-5.29572 3e-4,-1.88454 1.29682,-3.54536 1.76838,-5.36995 1.40111,-5.4213 -0.85189,-2.77182 2.99246,-5.82513 0.086,-0.51616 0.76168,-1.40686 0.25794,-1.54849 -1.09726,-0.30849 -2.3232,1.17075 -3.35135,0.67878 -0.51788,-0.24781 -0.51356,-8.43583 -0.41605,-8.95003 0.16682,-0.87972 0.84217,-1.5804 1.26325,-2.3706 0.0579,-0.36666 0.25851,-0.73859 0.17367,-1.09996 -0.22067,-0.93992 -0.84073,-1.75458 -1.06433,-2.69381 -0.10899,-0.45784 -0.66508,-5.29068 -0.51458,-6.15293 0.10922,-0.6257 0.57905,-1.13068 0.86857,-1.69601 0.14051,-0.87055 0.28102,-1.7411 0.42153,-2.61165 0.22837,-1.14126 -0.0783,-2.54528 0.68512,-3.42378 3.31149,-3.81041 1.72765,5.37938 4.39804,-2.09437 0.83168,-2.32767 -1.06265,-5.1282 -0.12286,-7.41436 0.28925,-0.70362 1.35555,-0.691 2.03332,-1.03651 1.288,-1.27526 3.6005,-0.0694 4.87133,-1.1505 1.06211,-0.90352 1.033,-2.63404 1.89739,-3.72823 0.68002,-0.86082 2.5439,-0.89655 2.62056,-1.99089 0.0872,-1.24504 -1.68307,-1.87563 -2.27263,-2.9757 -0.27055,-0.50484 -0.15626,-1.13482 -0.2344,-1.70222 4.02612,0.15167 8.42091,1.8068 8.78777,-4.05108 0.0704,-1.12387 -0.18485,-2.51876 -1.08105,-3.20057 -0.77652,-0.59075 -1.94867,0.10292 -2.92301,0.15437 -0.20463,-0.25131 3.34944,-3.14518 3.55406,-2.89387 l 0,0 c 0.39622,0.84019 0.95769,1.62082 1.18866,2.52058 1.19695,4.663 -0.42026,11.43744 -7.0138,10.23463 -1.18788,-0.2167 -1.42658,-1.94857 -2.13986,-2.92286 0.4443,0.89144 2.19527,4.29599 2.13751,4.83729 -0.11684,1.09509 -1.278,1.79481 -1.87662,2.71922 -0.77988,1.20432 -1.55464,2.41401 -2.25749,3.66486 -2.61973,4.66227 -0.62126,4.60944 -4.9823,0.59205 0.20822,3.01178 -0.0261,5.82853 -1.4457,8.60847 -0.50025,0.97965 -1.73521,1.52319 -2.06793,2.57165 -0.25907,0.8164 1.08005,1.9509 0.449,2.53003 -0.87204,0.80029 -2.35848,0.20304 -3.53771,0.30456 0.0565,1.00083 0.11292,2.00166 0.16938,3.00249 -0.37368,0.37985 -1.13876,0.60699 -1.12106,1.13954 0.0281,0.84686 0.96436,1.41935 1.23279,2.22304 0.35809,1.07215 0.22844,2.27413 0.62304,3.33339 1.77405,4.76215 2.46767,1.45072 0.99885,5.18953 -0.23383,1.01933 -0.95048,4.41353 -1.4178,5.32561 -0.44348,0.86555 -1.61947,1.36328 -1.76229,2.32528 -0.1687,1.13625 4.63128,2.52389 3.89771,4.11227 -0.54479,0.75004 -1.20447,1.42882 -1.63436,2.25014 -1.15449,2.20571 -3.34813,10.58725 -2.29871,12.74234 0.43228,0.88773 5.56457,-0.2576 5.6421,-0.27071 0.25355,0.8527 0.48822,1.71125 0.76064,2.55811 0.32121,0.99852 1.19955,1.94347 1.01988,2.97688 -0.28406,1.63382 -2.10675,2.76275 -2.30404,4.4093 -0.23719,1.97954 3.04728,4.71331 3.75092,6.47024 0.28076,0.35873 0.50722,0.76755 0.84227,1.07617 0.53152,0.48957 1.49763,0.61636 1.73592,1.29857 3.75741,10.75732 -3.68426,-0.7838 2.60976,10.72169 0.26561,0.48554 -0.0131,-1.11027 0.0562,-1.65935 0.0428,-0.33969 0.18524,-0.65924 0.27786,-0.98886 1.55816,0.35525 3.6565,-0.16625 4.67448,1.06574 0.38633,0.46753 -0.8783,7.65194 2.70583,7.38054 0.94883,-0.0719 0.64972,-1.78875 0.97459,-2.68312 0.65298,-0.30549 1.23827,-0.89767 1.95893,-0.91646 1.17102,-0.0305 2.28502,0.51731 3.42752,0.77596 3.33248,-0.82136 -0.48437,-0.19673 5.10394,1.2046 1.35471,0.33971 2.78404,0.23167 4.17204,0.38683 3.58213,0.40041 5.34979,0.51577 8.54539,-1.49666 1.06223,-0.31617 2.14096,-1.31564 3.18668,-0.94852 1.39877,0.49106 1.89017,2.34419 3.12509,3.16438 1.03174,0.68524 6.30876,2.65745 7.86778,2.10858 1.93422,-0.68097 2.96171,-3.78843 5.00183,-3.58136 1.73791,0.17639 1.91723,2.92062 2.87584,4.38094 1.31334,-0.96758 2.36226,-2.48831 3.94001,-2.90274 2.40932,-0.63285 5.81787,1.71773 6.84018,3.81956 0.40112,0.82469 0.14892,2.17006 0.97243,2.5736 0.97449,0.47752 2.14228,-0.3483 3.21341,-0.52245 -1.09208,6.77601 0.91657,-6.93513 0.41175,5.65469 -0.0606,1.51091 -1.1317,2.90903 -1.03053,4.41776 0.0975,1.45424 3.10927,5.0668 4.10455,6.33949 0.15508,-0.39899 0.0688,-1.35835 0.46523,-1.19697 0.70458,0.28678 0.89358,1.23574 1.26331,1.90054 0.94301,1.69558 1.54306,3.59268 2.67009,5.17194 2.14414,3.00449 4.92366,5.97318 8.26281,7.70721 4.11227,0.56974 8.15808,1.57006 12.27356,2.11615 2.62051,0.34772 5.53755,-0.58125 7.90866,0.58743 4.21664,2.07831 0.67457,7.8078 -1.07655,9.64277 -1.52491,-5.97552 -1.54764,-1.6731 5.80931,-4.27319 3.00494,-1.062 5.42978,-3.66149 8.5604,-4.25875 11.02828,-2.10397 19.73486,3.51484 29.80607,6.3977 -0.66312,-0.42642 -1.94088,-0.49235 -1.98936,-1.27925 -0.11053,-1.79401 1.39383,-3.36519 1.59316,-5.15151 0.21755,-1.94951 -1.32954,-4.16674 -0.36286,-5.87362 3.79924,-6.7084 6.31109,0.92248 7.16307,2.65325 -0.31001,-0.0774 -7.54239,-0.71629 -4.99931,-4.26333 1.3538,-1.88825 4.22662,-2.04625 6.00014,-3.54721 1.74573,-1.47744 2.37226,-4.21307 4.40582,-5.2595 3.41931,-1.7595 6.4848,1.17872 8.84591,2.75816 0.56482,0.94461 2.46645,2.04942 1.69444,2.83384 -0.77984,0.79238 -2.22202,-0.71818 -2.94775,-1.56039 -1.76714,-2.05079 -4.54533,-4.17808 -4.32179,-6.87597 0.16106,-1.94387 3.19854,-2.5206 5.12544,-2.82332 8.02703,-1.26103 11.20774,1.70526 18.1664,5.08492 4.25073,0.52297 7.92324,2.06656 11.44536,-1.8729 1.56571,-1.75123 1.02136,-4.86579 2.69925,-6.50985 1.03206,-1.01125 2.87609,-0.43984 4.31917,-0.36706 7.85476,0.3962 5.88773,-0.0353 10.95945,4.4129 -1.84075,-0.67764 -9.0458,-1.91058 -4.60427,-7.01877 1.01771,-1.17046 3.07513,0.4269 4.5927,0.74742 2.52954,0.53424 4.97978,1.46012 7.54063,1.81519 2.4476,0.33937 4.93904,0.17172 7.40857,0.25758 2.41859,0.39899 4.83718,0.79797 7.25577,1.19696 -0.63823,-0.97575 -1.84526,-1.76338 -1.91468,-2.92726 -0.0477,-0.79912 1.00321,-1.26757 1.63518,-1.75899 5.36673,-4.17325 3.12406,-1.23829 12.01779,-2.38873 2.4166,-0.31259 4.71802,-1.221 7.07703,-1.8315 1.62766,-0.1916 3.25531,-0.38321 4.88297,-0.57481 1.77168,-1.21405 4.23871,-3.91357 6.91047,-2.17933 0.54217,0.35193 -0.56441,2.50282 -0.29072,1.91724 0.53149,-1.1372 0.21453,-2.69884 1.08066,-3.60743 1.44376,-1.51454 3.60238,-2.12979 5.40357,-3.19468 1.43031,-1.79393 2.86062,-3.58786 4.29093,-5.38179 1.60809,-0.2414 3.22273,-1.00589 4.82425,-0.72421 0.96123,0.16906 1.25741,1.6341 2.1788,1.95594 1.21952,0.42597 3.82362,-1.98567 4.03436,-2.55887 0.60203,-1.63754 -0.69744,-3.9357 0.4934,-5.21079 1.1674,-1.24999 3.38374,-0.50147 5.07561,-0.75221 1.73838,0.0619 3.51636,-0.18827 5.21515,0.18583 1.12707,0.24819 8.19643,1.80517 7.09559,5.52821 -0.27415,0.92714 -1.91686,1.457 -2.74034,0.95042 -2.51204,-1.54536 -0.1871,-7.14198 -3.09442,-8.2892 0.21818,-1.80536 -0.43702,-3.96163 0.65455,-5.41607 0.9393,-1.25155 2.91476,-1.29854 4.47496,-1.41867 1.16339,-0.0896 3.40851,-0.35489 3.40502,0.81193 -0.003,1.13853 -2.40773,0.76955 -3.40812,0.22597 -3.66301,-1.99037 -3.81068,-8.27069 -8.4264,-9.24168 -11.50153,-18.4661 -2.49451,-1.17202 -7.65095,-19.26575 -0.58537,-2.05403 -2.48542,-3.64764 -2.80926,-5.75875 -0.0967,-0.63029 2.43226,-0.20889 1.85296,-0.47538 -3.69276,-1.69879 -4.04921,2.56886 -1.99122,-3.29736 -4.01071,-5.79835 -1.7566,-1.16875 -2.68627,-7.76181 -0.28782,-2.04112 -1.31697,-2.96496 -0.74964,-4.97312 4.15004,-14.68984 -0.13426,6.87524 3.39295,-13.37004 -0.02,-1.6423 -0.007,-3.28533 -0.06,-4.92692 -0.0322,-1.0081 0.35616,-2.1744 -0.19423,-3.0196 -0.4595,-0.70563 -1.84944,-0.23219 -2.35957,-0.90213 -1.85864,-2.44089 3.69831,-10.30788 3.52899,-13.30878 1.43654,-8.2411 1.46802,-1.11097 -2.01719,-6.73137 -1.42359,-2.29573 0.54892,-4.19472 1.29567,-6.1367 3.35639,-8.72861 -0.30742,-5.0196 7.72261,-9.55799 0.70875,-0.29437 1.59895,-1.44073 2.12624,-0.88311 0.64249,0.67945 0.45264,2.26936 -0.32663,2.78626 -1.09173,0.72417 -2.68538,0.44605 -3.93007,0.0373 -0.41313,-0.13567 0.38675,-0.80297 0.70878,-1.09517 13.80596,-12.52712 -5.32285,6.34364 11.36195,-10.50307 1.07259,-0.70435 8.02397,-6.24535 10.24325,-3.76526 1.05699,1.18122 -2.80233,2.29607 -2.74887,3.88026 0.0325,0.96266 2.12506,0.75147 2.88519,0.15989 4.18357,-3.25591 4.52318,-7.9739 5.75514,-12.62893 1.04665,-1.33905 1.81851,-2.94837 3.13995,-4.01715 0.55366,-0.4478 1.45865,-0.49623 2.12279,-0.23936 0.31844,0.12316 -0.44856,1.0449 -0.10815,1.01855 0.76068,-0.0589 1.95654,-0.4 1.97151,-1.16281 0.0776,-3.95504 -4.59171,-7.15459 -2.9354,-11.49862 0.16086,-1.80728 -0.62762,-3.98672 0.48259,-5.42185 0.60043,-0.77616 1.95529,1.01574 2.18861,1.9689 0.18995,0.77601 -0.46447,2.39057 -1.19863,2.0755 -0.88388,-0.37933 -0.2609,-1.91659 -0.56067,-2.83052 -3.6453,-11.11392 -3.62154,-3.53551 -0.37353,-16.62251 -0.5672,-2.68917 -1.80782,-5.32123 -1.7016,-8.06751 0.0653,-1.68859 1.4641,-3.04612 2.19047,-4.57189 0.35555,-0.74685 1.33019,-1.46577 1.05529,-2.24592 -0.42057,-1.19354 -2.14713,-1.49766 -2.76381,-2.6027 -1.02709,-1.84047 -1.3536,-3.99208 -2.03041,-5.98812 -1.18471,-1.8749 -2.36942,-3.74979 -3.55413,-5.62469 0.62998,-1.312 0.93129,-2.84091 1.88993,-3.936 0.49125,-0.56117 -0.54678,1.47991 -0.37524,2.20572 0.28869,1.22151 1.69727,2.10898 1.69161,3.36413 -0.003,0.56942 -1.19479,0.31233 -1.70709,0.0637 -1.72003,-0.8346 -3.52757,-1.73876 -4.75895,-3.20121 -1.74881,-2.07699 -2.62632,-4.75304 -3.93949,-7.12956 -0.9282,-1.77323 -1.46303,-3.81658 -2.78461,-5.31968 -0.78437,-0.89211 -2.21009,-0.89888 -3.22528,-1.5157 -0.73192,-0.4447 -1.37359,-1.03367 -1.97467,-1.64372 -0.5496,-0.5578 -0.69177,-1.99784 -1.45902,-1.84121 -8.27548,1.68944 -0.99994,5.44184 -7.35867,0.95112 0.0186,-0.47088 -0.15939,-0.99332 0.0557,-1.41264 0.0942,-0.18362 0.40494,0.0799 0.60741,0.11977 -0.18406,-0.92249 -0.36811,-1.84497 -0.55216,-2.76746 -6.74894,-2.06412 -10.13439,4.6349 -16.55489,-2.59003 0.82978,0.50988 2.32659,0.56942 2.48935,1.52964 0.56026,3.30521 -3.31164,4.11912 -5.33584,3.85832 -10.00337,-1.28883 -0.59701,-1.44564 -8.48311,-6.4108 -0.93762,-0.59034 -2.1955,0.3005 -3.29325,0.45076 -1.46641,2.84804 -0.92977,1.12918 -0.93193,5.32106 -0.63824,1.27111 -1.92424,2.1831 -3.1874,2.83692 -3.75226,1.9422 -7.22518,-0.47232 -10.13481,-2.61471 -0.93134,-0.37216 -1.91881,-1.60627 -2.79401,-1.11646 -2.03673,1.13988 1.63216,7.36186 -4.5923,5.28574 -1.92323,0.45184 -3.96587,0.34016 -5.92604,0.0937 -8.67298,-1.0903 -6.62609,-0.51482 -10.4098,-7.08309 -0.67681,-2.02143 -0.8596,-4.28287 -2.03042,-6.06428 -1.99894,-3.04144 -5.09237,-0.62902 -7.41887,-0.4111 -3.08481,0.28896 -7.36573,-0.8087 -9.59133,-2.93131 -1.69627,-1.61777 -2.39639,-4.0293 -3.59458,-6.04395 0.72477,-1.90255 0.91816,-4.10543 2.17429,-5.70765 0.54935,-0.7007 0.23882,1.77263 0.21298,2.66263 -0.037,1.27236 0.602,3.01335 -0.40058,3.79761 -0.89715,0.70179 -2.2173,-0.53689 -3.29444,-0.9072 -12.56627,-4.32017 -7.8636,-1.14125 -15.59095,-12.31048 -1.08669,-1.90871 -2.3525,-3.72604 -3.26007,-5.72613 -0.53166,-1.17167 2.56535,2.01424 2.12418,3.22289 -0.36011,0.9866 -2.05828,-0.44801 -3.10484,-0.53622 -2.26466,-0.19087 -4.58423,0.15257 -6.8115,-0.29953 -3.6816,-0.74731 -6.04465,-2.50498 -9.0602,-4.38247 -0.008,-0.27942 0.25257,-0.87587 -0.0244,-0.83827 -0.61055,0.0829 -0.90942,0.98663 -1.52248,1.04823 -0.99047,0.0995 -1.93179,-0.53769 -2.92521,-0.60127 -2.68806,-0.17203 -4.97463,0.55824 -7.41603,-1.15218 -0.0915,2.0988 0.28798,1.08066 -3.24029,1.80048 -5.53655,1.12954 -8.99476,2.23214 -14.85848,-0.61692 -2.89688,-1.40754 -4.89588,-4.18603 -7.34382,-6.27905 -1.99402,-0.80606 -3.98804,-1.61212 -5.98206,-2.41818 -0.10679,-8.97561 -0.0145,7.07351 -0.54961,7.71227 -5.7165,6.82313 -11.38736,-1.80603 -12.96849,-6.38551 -3.41228,3.64337 -6.09312,8.91117 -10.8044,11.19529 -4.66173,2.2601 -6.0239,0.55706 -4.52663,-3.54219 0.21967,-0.60141 1.06566,-0.71004 1.59849,-1.06507 -6.96262,-3.1498 -8.23141,5.38538 -11.69184,8.20504 -0.92333,0.75235 -5.8467,-0.63105 -3.45472,-2.24011 -6.26503,5.52093 -2.3433,2.79819 -12.42995,7.11591 -1.80373,1.52184 -1.61424,4.59803 -3.27036,6.27931 -3.83522,3.89347 -4.33078,-3.04423 -2.93522,-4.45758 -0.30648,0.99175 -0.78219,1.94634 -0.91943,2.97524 -0.18758,1.40634 -0.19226,11.10369 -1.12445,12.24452 -0.70373,0.86124 -1.57195,-1.89977 -2.68075,-1.98652 -2.10562,-0.16474 9.02942,8.66845 0.21923,6.33238 -3.1688,9.23897 -2.70583,4.41168 -1.0485,14.51048 -4.73959,14.45217 -5.07744,2.82718 -5.26651,1.91976 -1.10092,-5.28391 -0.96345,-1.62219 -0.85299,-5.98848 -7.59293,0.96707 1.0872,-1.08068 -6.31549,6.11853 -3.74627,3.64329 -6.51457,5.12525 -10.63086,2.67909 -1.03979,-0.61791 -2.02881,-1.47347 -2.58289,-2.54863 -0.5146,-0.99859 -0.30107,-2.22651 -0.4516,-3.33976 -1.17909,-0.32152 -2.46089,-1.5434 -3.53725,-0.96455 -1.335,0.71794 -1.26816,2.77159 -2.13505,4.01503 -0.96605,1.38566 -1.94759,2.84813 -3.32824,3.82132 -0.63241,0.44577 -1.5423,0.1729 -2.31586,0.15709 -4.178,-0.0854 -3.00657,0.54462 -4.7178,-2.53623 -0.9435,0.3336 -2.58935,0.0295 -2.83049,1.00079 -0.38212,1.53903 1.41898,2.94315 1.45767,4.52843 0.0307,1.25558 -1.43874,9.18887 -2.98639,10.71441 -0.45544,0.44892 -1.50145,-0.24796 -1.72053,-0.84876 -0.29803,-0.81733 0.31685,-1.71084 0.47527,-2.56626 -1.75875,5.97701 -0.12695,-1.96839 3.17051,7.66191 0.69879,2.04082 -0.0147,4.31717 0.11553,6.47038 0.11159,1.84503 1.2294,3.77042 0.60914,5.51165 -0.67693,1.9003 -4.45293,-6.87665 -3.83328,-4.68298 1.75146,3.12071 4.20783,5.92294 5.32265,9.32347 0.91779,2.7995 0.93767,5.81788 1.32616,8.73826 0.47532,3.57311 1.84033,7.90197 -0.9977,7.4846 -0.96569,-0.14202 -1.56139,-1.17174 -2.34208,-1.75761 0.95712,-0.41881 1.82916,-1.32902 2.87138,-1.25643 2.14591,0.14947 4.37022,0.71042 6.1715,1.88629 3.03547,1.98155 9.53974,9.27324 10.30867,13.25621 0.49366,2.55713 -4.0524,7.09903 -5.21067,8.47333 3.31801,1.99892 2.9819,2.02518 8.05305,3.25235 2.25561,0.54583 4.92772,-0.11292 6.86367,1.16685 5.95697,3.93789 -5.33485,9.31143 -5.61489,9.51568 -2.74553,2.00247 -5.5916,3.86332 -8.38741,5.79498 -2.54327,-0.93458 -5.39926,-1.26547 -7.62982,-2.80373 -0.56657,-0.39072 0.92672,-1.03255 1.48657,-1.43284 1.33858,-0.95708 2.54587,-2.78433 4.1833,-2.62111 1.66745,0.16621 4.30761,1.84613 3.69692,3.4066 -1.93598,4.94689 -13.73118,0.92253 -12.88332,9.38071 -2.33934,0.45815 -4.72593,2.02924 -7.01803,1.37446 -1.06251,-0.30352 -0.54144,-2.54499 0.26094,-3.30475 2.0086,-1.90189 4.64511,-3.2308 7.3327,-3.88545 5.16627,-1.25842 11.08061,1.86977 6.07067,9.2319 -2.56685,3.77199 -7.51127,5.18146 -11.2669,7.77219 -2.51565,1.76208 -4.60825,4.39323 -7.54695,5.28625 -1.15752,0.35175 0.54388,-2.44455 1.30092,-3.38819 2.24368,-2.7967 4.55834,-5.68931 7.55768,-7.65388 12.35864,-8.0949 5.57807,1.52837 3.27014,4.73391 -3.75549,5.2161 -7.92115,10.12427 -11.88173,15.1864 -0.0714,0.10541 -1.56211,-0.90408 -1.49073,-1.00949 z"
       inkscape:connector-curvature="0" />
    <path
       style="fill:#ff6600;stroke:#ff6600;stroke-width:6.06091547;stroke-linecap:round;stroke-linejoin:miter;stroke-miterlimit:4;stroke-dasharray:none;stroke-dashoffset:0"
       d="M 300.8125 437.125 C 300.13965 437.14365 299.85293 438.15215 299.3125 440.21875 C 297.99833 445.24417 286.83258 446.15063 285 441.375 C 284.06927 438.94956 282.86593 439.32158 278.8125 443.375 C 273.51478 448.67273 265.57774 450.15898 265.46875 445.875 C 265.42622 444.20342 264.56654 444.4438 262.9375 446.5625 C 261.58387 448.32299 257.84993 450.41547 254.625 451.21875 C 246.43576 453.25857 237.25 463.63096 237.25 470.84375 C 237.25 474.05974 236.32992 476.6875 235.21875 476.6875 C 234.10758 476.6875 233.1875 479.94411 233.1875 483.90625 C 233.1875 487.86839 232.27526 492.85071 231.125 495 C 228.29747 500.28329 223.09375 500.0032 223.09375 494.5625 C 223.09375 490.47264 222.87693 490.42158 219.40625 493.5625 C 214.65626 497.8612 205.1666 497.9179 203.53125 493.65625 C 202.38442 490.66766 202.14125 490.66766 200.46875 493.65625 C 199.46792 495.44463 196.44145 496.90625 193.71875 496.90625 C 188.87398 496.90625 187.88143 499.65935 188.34375 512.0625 C 189.01843 530.163 191.32244 537.2277 199.125 545.1875 C 205.78492 551.98163 207.1336 554.62653 206.59375 560 C 206.00207 565.88943 206.54705 566.6526 212 567.59375 C 221.95198 569.31141 221.14836 576.08173 210.09375 583.6875 C 205.02903 587.17213 200.875 590.77486 200.875 591.6875 C 200.875 592.60014 197.22593 597.91772 192.78125 603.5 C 188.33658 609.08227 184.71875 614.67275 184.71875 615.9375 C 184.71875 617.20226 183.35629 618.76588 181.6875 619.40625 C 178.61904 620.58373 168.84157 633.91004 165.59375 641.34375 C 164.62281 643.56608 163.7291 651.30866 163.625 658.53125 C 163.52091 665.75384 162.70439 673.71862 161.8125 676.21875 C 160.607 679.59797 160.96291 680.75 163.15625 680.75 C 166.73253 680.75 169.04003 686.09001 167.53125 690.84375 C 166.92538 692.75267 167.83941 695.47091 169.53125 696.875 C 171.22309 698.27911 172.59375 700.56585 172.59375 701.96875 C 172.59375 708.48062 193.56443 716.23969 202.25 712.9375 C 205.82074 711.57991 208.48063 711.97742 212.1875 714.40625 C 215.77245 716.7552 217.87988 717.08888 219.40625 715.5625 C 225.15042 709.81833 247.23094 721.31414 244.4375 728.59375 C 243.87773 730.05247 246.18018 735.3159 249.53125 740.28125 C 255.5491 749.198 263.65294 753.43865 274.71875 753.46875 C 276.99664 753.47495 279.72564 754.33545 280.78125 755.375 C 281.97303 756.54859 285.76322 756.45369 290.78125 755.15625 C 297.03444 753.53946 300.68431 753.74551 306.9375 756.0625 C 318.10118 760.19891 318.0625 760.21717 318.0625 753.90625 C 318.0625 749.48857 320.26089 746.62806 328.34375 740.59375 C 339.16693 732.5135 341.82903 732.17343 361.78125 736.375 C 367.02863 737.48 368.38559 737.00179 369.4375 733.6875 C 370.22368 731.21046 373.21493 729.18455 377.21875 728.40625 C 386.21113 726.65811 386.54873 726.65908 397.34375 728.3125 C 405.1593 729.50955 406.9375 729.23503 406.9375 726.78125 C 406.9375 724.54594 410.32808 723.44027 420.0625 722.53125 C 434.07753 721.2225 438.87531 719.37411 448.1875 711.625 C 451.54628 708.83001 455.66552 707.13422 457.78125 707.6875 C 460.42154 708.37796 461.5 707.55442 461.5 704.8125 C 461.5 702.22404 462.90716 700.9375 465.8125 700.9375 C 468.19012 700.9375 471.28344 699.38891 472.6875 697.46875 C 474.85597 694.50319 474.3575 692.95598 469.375 687.28125 C 466.1489 683.60692 463.506 679.06214 463.5 677.15625 C 463.49315 675.25037 462.08745 671.00276 460.375 667.71875 C 455.85219 659.04524 454.67648 646.63763 457.40625 636.5 C 459.29126 629.4993 459.2609 627.3053 457.25 626.0625 C 455.21944 624.80749 455.20657 622.83045 457.1875 616.21875 C 458.55205 611.66388 459.06092 606.97292 458.34375 605.8125 C 457.62662 604.65209 457.60909 600.77039 458.28125 597.1875 C 459.77595 589.22009 479.51566 571.65625 486.96875 571.65625 C 490.27443 571.65625 491.8125 570.51936 491.8125 568.03125 C 491.8125 566.03115 492.75916 563.42835 493.9375 562.25 C 495.18793 560.99958 496.16044 549.83396 496.28125 535.46875 C 496.46916 513.12403 496.1111 510.3706 492.15625 505.40625 C 489.76025 502.39867 486.2979 497.2085 484.46875 493.875 C 480.44053 486.53388 477.69748 484.54201 473.40625 485.875 C 471.61859 486.43031 468.95145 485.46763 467.5 483.71875 C 465.41563 481.20723 462.61857 480.8138 454.125 481.875 C 444.9396 483.02264 443.17487 482.68668 442 479.625 C 440.77042 476.42077 440.4323 476.52162 438.9375 480.5625 C 437.57818 484.23709 435.94752 484.98818 430.28125 484.5 C 426.44758 484.16971 422.67538 484.54337 421.875 485.34375 C 421.07461 486.14412 416.91574 486.8125 412.65625 486.8125 C 404.52714 486.8125 396.84375 481.39517 396.84375 475.6875 C 396.84375 473.5699 394.70039 472.65625 389.75 472.65625 C 384.71121 472.65625 381.40474 471.18608 378.28125 467.59375 C 375.86587 464.81583 372.5943 462.5625 371 462.5625 C 369.40571 462.5625 365.23337 459.48743 361.75 455.75 C 354.28405 447.73951 349.09987 446.17293 326.125 444.96875 C 312.63672 444.26179 308.05129 443.23312 304.6875 440.09375 C 302.55262 438.10129 301.48535 437.10635 300.8125 437.125 z "
       id="path3777" />
    <path
       id="path3780"
       d="M 300.8125 437.125 C 300.13965 437.14365 299.85293 438.15215 299.3125 440.21875 C 297.99833 445.24417 286.83258 446.15063 285 441.375 C 284.06927 438.94956 282.86593 439.32158 278.8125 443.375 C 273.51478 448.67273 265.57774 450.15898 265.46875 445.875 C 265.42622 444.20342 264.56654 444.4438 262.9375 446.5625 C 261.58387 448.32299 257.84993 450.41547 254.625 451.21875 C 246.43576 453.25857 237.25 463.63096 237.25 470.84375 C 237.25 474.05974 236.32992 476.6875 235.21875 476.6875 C 234.10758 476.6875 233.1875 479.94411 233.1875 483.90625 C 233.1875 487.86839 232.27526 492.85071 231.125 495 C 228.29747 500.28329 223.09375 500.0032 223.09375 494.5625 C 223.09375 490.47264 222.87693 490.42158 219.40625 493.5625 C 214.65626 497.8612 205.1666 497.9179 203.53125 493.65625 C 202.38442 490.66766 202.14125 490.66766 200.46875 493.65625 C 199.46792 495.44463 196.44145 496.90625 193.71875 496.90625 C 188.87398 496.90625 187.88143 499.65935 188.34375 512.0625 C 189.01843 530.163 191.32244 537.2277 199.125 545.1875 C 205.78492 551.98163 207.1336 554.62653 206.59375 560 C 206.00207 565.88943 206.54705 566.6526 212 567.59375 C 221.95198 569.31141 221.14836 576.08173 210.09375 583.6875 C 205.02903 587.17213 200.875 590.77486 200.875 591.6875 C 200.875 592.60014 197.22593 597.91772 192.78125 603.5 C 188.33658 609.08227 184.71875 614.67275 184.71875 615.9375 C 184.71875 617.20226 183.35629 618.76588 181.6875 619.40625 C 178.61904 620.58373 168.84157 633.91004 165.59375 641.34375 C 164.62281 643.56608 163.7291 651.30866 163.625 658.53125 C 163.52091 665.75384 162.70439 673.71862 161.8125 676.21875 C 160.607 679.59797 160.96291 680.75 163.15625 680.75 C 166.73253 680.75 169.04003 686.09001 167.53125 690.84375 C 166.92538 692.75267 167.83941 695.47091 169.53125 696.875 C 171.22309 698.27911 172.59375 700.56585 172.59375 701.96875 C 172.59375 708.48062 193.56443 716.23969 202.25 712.9375 C 205.82074 711.57991 208.48063 711.97742 212.1875 714.40625 C 215.77245 716.7552 217.87988 717.08888 219.40625 715.5625 C 225.15042 709.81833 247.23094 721.31414 244.4375 728.59375 C 243.87773 730.05247 246.18018 735.3159 249.53125 740.28125 C 255.5491 749.198 263.65294 753.43865 274.71875 753.46875 C 276.99664 753.47495 279.72564 754.33545 280.78125 755.375 C 281.97303 756.54859 285.76322 756.45369 290.78125 755.15625 C 297.03444 753.53946 300.68431 753.74551 306.9375 756.0625 C 318.10118 760.19891 318.0625 760.21717 318.0625 753.90625 C 318.0625 749.48857 320.26089 746.62806 328.34375 740.59375 C 339.16693 732.5135 341.82903 732.17343 361.78125 736.375 C 367.02863 737.48 368.38559 737.00179 369.4375 733.6875 C 370.22368 731.21046 373.21493 729.18455 377.21875 728.40625 C 386.21113 726.65811 386.54873 726.65908 397.34375 728.3125 C 405.1593 729.50955 406.9375 729.23503 406.9375 726.78125 C 406.9375 724.54594 410.32808 723.44027 420.0625 722.53125 C 434.07753 721.2225 438.87531 719.37411 448.1875 711.625 C 451.54628 708.83001 455.66552 707.13422 457.78125 707.6875 C 460.42154 708.37796 461.5 707.55442 461.5 704.8125 C 461.5 702.22404 462.90716 700.9375 465.8125 700.9375 C 468.19012 700.9375 471.28344 699.38891 472.6875 697.46875 C 474.85597 694.50319 474.3575 692.95598 469.375 687.28125 C 466.1489 683.60692 463.506 679.06214 463.5 677.15625 C 463.49315 675.25037 462.08745 671.00276 460.375 667.71875 C 455.85219 659.04524 454.67648 646.63763 457.40625 636.5 C 459.29126 629.4993 459.2609 627.3053 457.25 626.0625 C 455.21944 624.80749 455.20657 622.83045 457.1875 616.21875 C 458.55205 611.66388 459.06092 606.97292 458.34375 605.8125 C 457.62662 604.65209 457.60909 600.77039 458.28125 597.1875 C 459.77595 589.22009 479.51566 571.65625 486.96875 571.65625 C 490.27443 571.65625 491.8125 570.51936 491.8125 568.03125 C 491.8125 566.03115 492.75916 563.42835 493.9375 562.25 C 495.18793 560.99958 496.16044 549.83396 496.28125 535.46875 C 496.46916 513.12403 496.1111 510.3706 492.15625 505.40625 C 489.76025 502.39867 486.2979 497.2085 484.46875 493.875 C 480.44053 486.53388 477.69748 484.54201 473.40625 485.875 C 471.61859 486.43031 468.95145 485.46763 467.5 483.71875 C 465.41563 481.20723 462.61857 480.8138 454.125 481.875 C 444.9396 483.02264 443.17487 482.68668 442 479.625 C 440.77042 476.42077 440.4323 476.52162 438.9375 480.5625 C 437.57818 484.23709 435.94752 484.98818 430.28125 484.5 C 426.44758 484.16971 422.67538 484.54337 421.875 485.34375 C 421.07461 486.14412 416.91574 486.8125 412.65625 486.8125 C 404.52714 486.8125 396.84375 481.39517 396.84375 475.6875 C 396.84375 473.5699 394.70039 472.65625 389.75 472.65625 C 384.71121 472.65625 381.40474 471.18608 378.28125 467.59375 C 375.86587 464.81583 372.5943 462.5625 371 462.5625 C 369.40571 462.5625 365.23337 459.48743 361.75 455.75 C 354.28405 447.73951 349.09987 446.17293 326.125 444.96875 C 312.63672 444.26179 308.05129 443.23312 304.6875 440.09375 C 302.55262 438.10129 301.48535 437.10635 300.8125 437.125 z "
       style="fill:#ff6600;stroke:none;stroke-width:6.06091547000000030;stroke-linecap:round;stroke-linejoin:miter;stroke-miterlimit:4;stroke-dasharray:none;stroke-dashoffset:0" />
    <path
       style="fill:url(#radialGradient3818);stroke:url(#radialGradient3810);fill-opacity:1"
       d="m 310.15183,759.35099 c -2.67938,-1.06729 -13.18405,-2.25488 -23.34372,-2.63912 -25.80111,-0.97581 -38.97785,-8.81294 -43.62362,-25.94602 -2.40794,-8.88025 -10.18804,-13.82807 -21.65217,-13.76995 -12.17933,0.0618 -35.36433,-3.04727 -41.36332,-5.54671 -6.62904,-2.76192 -13.61992,-13.45897 -13.63044,-20.85652 -0.004,-2.92017 -1.70766,-6.55671 -3.78558,-8.08122 -3.52226,-2.58415 -3.62402,-4.07113 -1.50314,-21.96469 2.41349,-20.36227 5.50794,-28.01804 16.17672,-40.02172 3.6445,-4.1005 10.39579,-13.0644 15.00287,-19.91977 4.60707,-6.85538 11.12157,-14.41898 14.47666,-16.80802 3.35509,-2.38903 7.05573,-6.1292 8.22366,-8.31149 1.83044,-3.42021 1.27223,-4.26456 -4.04472,-6.11806 -4.82947,-1.68356 -6.16822,-3.33763 -6.16822,-7.62102 0,-3.00893 -2.37146,-8.6021 -5.2699,-12.42927 -9.13525,-12.06242 -12.82102,-22.25394 -12.86848,-35.58261 -0.053,-14.87325 1.21052,-18.85306 5.98532,-18.85306 1.9674,0 4.72789,-1.38664 6.13444,-3.08143 2.29201,-2.76169 2.91065,-2.76169 5.9623,0 4.27994,3.8733 8.29268,3.90804 13.30723,0.11522 5.44856,-4.12108 6.94199,-3.81224 7.01639,1.45098 0.0626,4.43196 0.13845,4.44758 3.03046,0.62401 1.63141,-2.15692 2.9662,-5.8063 2.9662,-8.10974 0,-5.08913 6.96097,-24.59054 10.14843,-28.4312 1.2652,-1.52448 6.31288,-4.7142 11.21706,-7.08827 4.90418,-2.37408 9.45724,-5.19112 10.11791,-6.2601 0.741,-1.19898 2.27147,-1.05537 3.99476,0.37483 2.15892,1.79175 4.44648,1.29687 10.06955,-2.17838 5.39651,-3.33523 7.86404,-3.90877 9.55248,-2.22033 3.52144,3.52145 9.18292,2.69595 11.52511,-1.68047 2.07471,-3.87663 2.25044,-3.88103 8.65737,-0.21662 4.09104,2.33985 12.93976,4.26556 23.63258,5.14306 17.69793,1.45236 28.39474,5.38521 35.24309,12.95766 2.11676,2.34058 4.71293,4.25559 5.76926,4.25559 1.05634,0 4.62174,2.27285 7.92312,5.05077 3.30136,2.77792 8.51421,5.05076 11.5841,5.05076 4.0019,0 6.23677,1.4379 7.89647,5.08052 3.45945,7.59267 9.58341,9.5 24.55351,7.64727 10.46953,-1.29573 13.49269,-2.48776 15.24961,-6.01292 2.12956,-4.2729 2.25951,-4.28764 4.61056,-0.52299 1.88203,3.0136 4.54889,3.81115 12.00976,3.59162 12.21309,-0.35936 24.21513,2.94998 27.9824,7.71565 1.61477,2.04273 5.62905,8.25974 8.92059,13.81558 5.68969,9.60368 5.97792,11.19677 5.84832,32.32488 -0.17172,27.98817 -2.74046,37.36546 -10.95674,39.9969 -16.09852,5.15589 -27.05962,18.97339 -26.94349,33.96482 0.041,5.30321 -0.54502,10.64488 -1.30241,11.87038 -0.7574,1.22549 -0.37445,3.43627 0.85101,4.91285 1.62497,1.95798 1.61089,5.56251 -0.0521,13.31648 -2.79403,13.02812 1.36774,31.04112 10.49825,45.43842 7.36567,11.61445 7.33589,14.16141 -0.20462,17.49915 -3.3335,1.47555 -6.06091,3.8246 -6.06091,5.22011 0,1.3955 -1.66241,2.53728 -3.69425,2.53728 -2.03182,0 -7.87719,2.77069 -12.98972,6.15706 -5.75867,3.8144 -14.15393,7.02032 -22.06464,8.42587 -7.02304,1.24784 -14.04728,3.25012 -15.6094,4.44954 -1.56214,1.19939 -10.02073,2.18073 -18.7969,2.18073 -14.17052,0 -16.34023,0.5075 -19.38313,4.53383 -3.26081,4.31466 -4.03534,4.42657 -16.02201,2.31503 -11.90263,-2.09672 -13.07851,-1.93576 -21.37427,2.92588 -10.46281,6.13161 -12.89105,8.82379 -13.81884,15.32083 -0.82189,5.75552 -2.9725,6.65242 -9.61087,4.00814 l 8e-5,0 z"
       id="path3802"
       inkscape:connector-curvature="0" />
    <path
       inkscape:connector-curvature="0"
       id="path3822"
       d="m 310.15183,759.35099 c -2.67938,-1.06729 -13.18405,-2.25488 -23.34372,-2.63912 -25.80111,-0.97581 -38.97785,-8.81294 -43.62362,-25.94602 -2.40794,-8.88025 -10.18804,-13.82807 -21.65217,-13.76995 -12.17933,0.0618 -35.36433,-3.04727 -41.36332,-5.54671 -6.62904,-2.76192 -13.61992,-13.45897 -13.63044,-20.85652 -0.004,-2.92017 -1.70766,-6.55671 -3.78558,-8.08122 -3.52226,-2.58415 -3.62402,-4.07113 -1.50314,-21.96469 2.41349,-20.36227 5.50794,-28.01804 16.17672,-40.02172 3.6445,-4.1005 10.39579,-13.0644 15.00287,-19.91977 4.60707,-6.85538 11.12157,-14.41898 14.47666,-16.80802 3.35509,-2.38903 7.05573,-6.1292 8.22366,-8.31149 1.83044,-3.42021 1.27223,-4.26456 -4.04472,-6.11806 -4.82947,-1.68356 -6.16822,-3.33763 -6.16822,-7.62102 0,-3.00893 -2.37146,-8.6021 -5.2699,-12.42927 -9.13525,-12.06242 -12.82102,-22.25394 -12.86848,-35.58261 -0.053,-14.87325 1.21052,-18.85306 5.98532,-18.85306 1.9674,0 4.72789,-1.38664 6.13444,-3.08143 2.29201,-2.76169 2.91065,-2.76169 5.9623,0 4.27994,3.8733 8.29268,3.90804 13.30723,0.11522 5.44856,-4.12108 6.94199,-3.81224 7.01639,1.45098 0.0626,4.43196 0.13845,4.44758 3.03046,0.62401 1.63141,-2.15692 2.9662,-5.8063 2.9662,-8.10974 0,-5.08913 6.96097,-24.59054 10.14843,-28.4312 1.2652,-1.52448 6.31288,-4.7142 11.21706,-7.08827 4.90418,-2.37408 9.45724,-5.19112 10.11791,-6.2601 0.741,-1.19898 2.27147,-1.05537 3.99476,0.37483 2.15892,1.79175 4.44648,1.29687 10.06955,-2.17838 5.39651,-3.33523 7.86404,-3.90877 9.55248,-2.22033 3.52144,3.52145 9.18292,2.69595 11.52511,-1.68047 2.07471,-3.87663 2.25044,-3.88103 8.65737,-0.21662 4.09104,2.33985 12.93976,4.26556 23.63258,5.14306 17.69793,1.45236 28.39474,5.38521 35.24309,12.95766 2.11676,2.34058 4.71293,4.25559 5.76926,4.25559 1.05634,0 4.62174,2.27285 7.92312,5.05077 3.30136,2.77792 8.51421,5.05076 11.5841,5.05076 4.0019,0 6.23677,1.4379 7.89647,5.08052 3.45945,7.59267 9.58341,9.5 24.55351,7.64727 10.46953,-1.29573 13.49269,-2.48776 15.24961,-6.01292 2.12956,-4.2729 2.25951,-4.28764 4.61056,-0.52299 1.88203,3.0136 4.54889,3.81115 12.00976,3.59162 12.21309,-0.35936 24.21513,2.94998 27.9824,7.71565 1.61477,2.04273 5.62905,8.25974 8.92059,13.81558 5.68969,9.60368 5.97792,11.19677 5.84832,32.32488 -0.17172,27.98817 -2.74046,37.36546 -10.95674,39.9969 -16.09852,5.15589 -27.05962,18.97339 -26.94349,33.96482 0.041,5.30321 -0.54502,10.64488 -1.30241,11.87038 -0.7574,1.22549 -0.37445,3.43627 0.85101,4.91285 1.62497,1.95798 1.61089,5.56251 -0.0521,13.31648 -2.79403,13.02812 1.36774,31.04112 10.49825,45.43842 7.36567,11.61445 7.33589,14.16141 -0.20462,17.49915 -3.3335,1.47555 -6.06091,3.8246 -6.06091,5.22011 0,1.3955 -1.66241,2.53728 -3.69425,2.53728 -2.03182,0 -7.87719,2.77069 -12.98972,6.15706 -5.75867,3.8144 -14.15393,7.02032 -22.06464,8.42587 -7.02304,1.24784 -14.04728,3.25012 -15.6094,4.44954 -1.56214,1.19939 -10.02073,2.18073 -18.7969,2.18073 -14.17052,0 -16.34023,0.5075 -19.38313,4.53383 -3.26081,4.31466 -4.03534,4.42657 -16.02201,2.31503 -11.90263,-2.09672 -13.07851,-1.93576 -21.37427,2.92588 -10.46281,6.13161 -12.89105,8.82379 -13.81884,15.32083 -0.82189,5.75552 -2.9725,6.65242 -9.61087,4.00814 l 8e-5,0 z"
       style="fill:url(#radialGradient3830);stroke:url(#radialGradient3810);fill-opacity:1" />
    <path
       style="fill:url(#radialGradient3848);stroke:url(#radialGradient3889);fill-opacity:1;filter:url(#filter3891)"
       d="m 310.15183,759.35099 c -2.67938,-1.06729 -13.18405,-2.25488 -23.34372,-2.63912 -25.80111,-0.97581 -38.97785,-8.81294 -43.62362,-25.94602 -2.40794,-8.88025 -10.18804,-13.82807 -21.65217,-13.76995 -12.17933,0.0618 -35.36433,-3.04727 -41.36332,-5.54671 -6.62904,-2.76192 -13.61992,-13.45897 -13.63044,-20.85652 -0.004,-2.92017 -1.70766,-6.55671 -3.78558,-8.08122 -3.52226,-2.58415 -3.62402,-4.07113 -1.50314,-21.96469 2.41349,-20.36227 5.50794,-28.01804 16.17672,-40.02172 3.6445,-4.1005 10.39579,-13.0644 15.00287,-19.91977 4.60707,-6.85538 11.12157,-14.41898 14.47666,-16.80802 3.35509,-2.38903 7.05573,-6.1292 8.22366,-8.31149 1.83044,-3.42021 1.27223,-4.26456 -4.04472,-6.11806 -4.82947,-1.68356 -6.16822,-3.33763 -6.16822,-7.62102 0,-3.00893 -2.37146,-8.6021 -5.2699,-12.42927 -9.13525,-12.06242 -12.82102,-22.25394 -12.86848,-35.58261 -0.053,-14.87325 1.21052,-18.85306 5.98532,-18.85306 1.9674,0 4.72789,-1.38664 6.13444,-3.08143 2.29201,-2.76169 2.91065,-2.76169 5.9623,0 4.27994,3.8733 8.29268,3.90804 13.30723,0.11522 5.44856,-4.12108 6.94199,-3.81224 7.01639,1.45098 0.0626,4.43196 0.13845,4.44758 3.03046,0.62401 1.63141,-2.15692 2.9662,-5.8063 2.9662,-8.10974 0,-5.08913 6.96097,-24.59054 10.14843,-28.4312 1.2652,-1.52448 6.31288,-4.7142 11.21706,-7.08827 4.90418,-2.37408 9.45724,-5.19112 10.11791,-6.2601 0.741,-1.19898 2.27147,-1.05537 3.99476,0.37483 2.15892,1.79175 4.44648,1.29687 10.06955,-2.17838 5.39651,-3.33523 7.86404,-3.90877 9.55248,-2.22033 3.52144,3.52145 9.18292,2.69595 11.52511,-1.68047 2.07471,-3.87663 2.25044,-3.88103 8.65737,-0.21662 4.09104,2.33985 12.93976,4.26556 23.63258,5.14306 17.69793,1.45236 28.39474,5.38521 35.24309,12.95766 2.11676,2.34058 4.71293,4.25559 5.76926,4.25559 1.05634,0 4.62174,2.27285 7.92312,5.05077 3.30136,2.77792 8.51421,5.05076 11.5841,5.05076 4.0019,0 6.23677,1.4379 7.89647,5.08052 3.45945,7.59267 9.58341,9.5 24.55351,7.64727 10.46953,-1.29573 13.49269,-2.48776 15.24961,-6.01292 2.12956,-4.2729 2.25951,-4.28764 4.61056,-0.52299 1.88203,3.0136 4.54889,3.81115 12.00976,3.59162 12.21309,-0.35936 24.21513,2.94998 27.9824,7.71565 1.61477,2.04273 5.62905,8.25974 8.92059,13.81558 5.68969,9.60368 5.97792,11.19677 5.84832,32.32488 -0.17172,27.98817 -2.74046,37.36546 -10.95674,39.9969 -16.09852,5.15589 -27.05962,18.97339 -26.94349,33.96482 0.041,5.30321 -0.54502,10.64488 -1.30241,11.87038 -0.7574,1.22549 -0.37445,3.43627 0.85101,4.91285 1.62497,1.95798 1.61089,5.56251 -0.0521,13.31648 -2.79403,13.02812 1.36774,31.04112 10.49825,45.43842 7.36567,11.61445 7.33589,14.16141 -0.20462,17.49915 -3.3335,1.47555 -6.06091,3.8246 -6.06091,5.22011 0,1.3955 -1.66241,2.53728 -3.69425,2.53728 -2.03182,0 -7.87719,2.77069 -12.98972,6.15706 -5.75867,3.8144 -14.15393,7.02032 -22.06464,8.42587 -7.02304,1.24784 -14.04728,3.25012 -15.6094,4.44954 -1.56214,1.19939 -10.02073,2.18073 -18.7969,2.18073 -14.17052,0 -16.34023,0.5075 -19.38313,4.53383 -3.26081,4.31466 -4.03534,4.42657 -16.02201,2.31503 -11.90263,-2.09672 -13.07851,-1.93576 -21.37427,2.92588 -10.46281,6.13161 -12.89105,8.82379 -13.81884,15.32083 -0.82189,5.75552 -2.9725,6.65242 -9.61087,4.00814 l 8e-5,0 z"
       id="path3832"
       inkscape:connector-curvature="0" />
  </g>
</svg>
